<svg version="1.1" id="Layer_1" xmlns="http://www.w3.org/2000/svg" xmlns:xlink="http://www.w3.org/1999/xlink" x="0px" y="0px"
	 width="223px" height="48.778px" viewBox="0 0 223 48.778" enable-background="new 0 0 223 48.778" xml:space="preserve">
<g>
	<g>
		<g>
			<path fill="#6EDBD5" d="M8.437,12.453l5.729,15.907c0.048,0.113,0.072,0.217,0.072,0.314c0,0.274-0.347,0.411-1.039,0.411h-0.194
				c-0.564,0-0.886-0.129-0.967-0.387l-1.426-3.964H3.505l-1.378,3.964c-0.081,0.258-0.403,0.387-0.967,0.387H1.039
				C0.346,29.085,0,28.948,0,28.674c0-0.08,0.024-0.193,0.072-0.338l5.729-15.882c0.081-0.258,0.403-0.387,0.967-0.387H7.47
				C8.033,12.066,8.356,12.196,8.437,12.453z M7.083,14.29c-0.129,0.645-0.25,1.112-0.362,1.402l-2.538,7.204h5.777l-2.538-7.204
				c-0.081-0.258-0.178-0.725-0.29-1.402H7.083z"/>
			<path fill="#6EDBD5" d="M25.951,13.275c0.927,0.774,1.39,1.813,1.39,3.119c0,0.806-0.266,1.571-0.798,2.296
				c-0.532,0.725-1.152,1.184-1.861,1.378v0.096c0-0.064,0.314,0.057,0.943,0.362c0.629,0.306,1.192,0.754,1.692,1.342
				c0.499,0.589,0.75,1.358,0.75,2.309c0,3.239-2.103,4.859-6.31,4.859h-4.158c-0.258,0-0.443-0.056-0.556-0.169
				c-0.113-0.112-0.169-0.298-0.169-0.556V12.84c0-0.258,0.056-0.443,0.169-0.556c0.113-0.113,0.298-0.169,0.556-0.169h4.327
				C23.682,12.115,25.024,12.502,25.951,13.275z M19.001,13.952v5.464h2.804c0.967,0,1.765-0.274,2.393-0.822
				c0.629-0.547,0.943-1.216,0.943-2.006c0-0.903-0.274-1.567-0.822-1.994c-0.548-0.427-1.418-0.641-2.611-0.641H19.001z
				 M19.001,21.253v5.947h3.529c1.064,0,1.886-0.277,2.466-0.834c0.58-0.556,0.87-1.317,0.87-2.284c0-0.903-0.318-1.599-0.955-2.091
				c-0.637-0.491-1.568-0.737-2.792-0.737H19.001z"/>
			<path fill="#6EDBD5" d="M33.336,12.598v15.954c0,0.355-0.323,0.532-0.967,0.532h-0.193c-0.645,0-0.967-0.177-0.967-0.532V12.598
				c0-0.355,0.322-0.532,0.967-0.532h0.193C33.013,12.066,33.336,12.244,33.336,12.598z"/>
			<path fill="#6EDBD5" d="M47.562,12.284c0.072,0.113,0.109,0.298,0.109,0.556v0.387c0,0.258-0.036,0.443-0.109,0.556
				c-0.072,0.113-0.198,0.169-0.375,0.169h-7.035v5.512h6.31c0.177,0,0.302,0.057,0.374,0.169c0.073,0.113,0.109,0.299,0.109,0.556
				v0.387c0,0.258-0.036,0.443-0.109,0.556c-0.072,0.113-0.197,0.169-0.374,0.169h-6.31v5.898h7.059
				c0.177,0,0.302,0.057,0.375,0.169c0.073,0.113,0.109,0.299,0.109,0.557v0.387c0,0.258-0.036,0.444-0.109,0.556
				c-0.072,0.113-0.198,0.169-0.375,0.169H38.75c-0.258,0-0.443-0.056-0.556-0.169c-0.113-0.112-0.169-0.298-0.169-0.556V12.84
				c0-0.258,0.056-0.443,0.169-0.556c0.113-0.113,0.298-0.169,0.556-0.169h8.437C47.364,12.115,47.489,12.172,47.562,12.284z"/>
			<path fill="#6EDBD5" d="M60.374,13.142c0.975,0.685,1.462,1.769,1.462,3.251c0,0.999-0.241,1.841-0.725,2.526
				c-0.483,0.685-1.169,1.205-2.055,1.559v0.097c0.467,0.161,0.858,0.476,1.173,0.943c0.314,0.468,0.648,1.16,1.003,2.079
				l1.886,4.762c0.049,0.145,0.073,0.258,0.073,0.338c0,0.258-0.338,0.387-1.016,0.387h-0.241c-0.242,0-0.451-0.036-0.629-0.108
				c-0.178-0.073-0.29-0.165-0.338-0.278l-1.837-4.738c-0.355-0.919-0.798-1.543-1.329-1.873c-0.532-0.33-1.29-0.496-2.272-0.496
				h-2.176v6.962c0,0.355-0.323,0.532-0.967,0.532h-0.193c-0.645,0-0.967-0.177-0.967-0.532V12.84c0-0.258,0.056-0.443,0.169-0.556
				c0.113-0.113,0.298-0.169,0.556-0.169h4.062C57.945,12.115,59.399,12.457,60.374,13.142z M53.351,13.952v5.802h3.191
				c0.564,0,1.083-0.137,1.559-0.411c0.475-0.274,0.85-0.636,1.124-1.088c0.274-0.451,0.411-0.943,0.411-1.474
				c0-0.951-0.29-1.66-0.87-2.127c-0.58-0.467-1.378-0.701-2.393-0.701H53.351z"/>
			<path fill="#6EDBD5" d="M76.304,12.284c0.072,0.113,0.109,0.298,0.109,0.556v0.387c0,0.258-0.036,0.443-0.109,0.556
				c-0.072,0.113-0.198,0.169-0.375,0.169h-4.569v14.601c0,0.355-0.323,0.532-0.967,0.532H70.2c-0.645,0-0.967-0.177-0.967-0.532
				V13.952h-4.641c-0.161,0-0.282-0.056-0.362-0.169c-0.081-0.113-0.121-0.298-0.121-0.556V12.84c0-0.258,0.04-0.443,0.121-0.556
				c0.08-0.113,0.201-0.169,0.362-0.169h11.338C76.106,12.115,76.232,12.172,76.304,12.284z"/>
			<path fill="#6EDBD5" d="M91.28,14.133c1.273,1.443,1.91,3.574,1.91,6.394c0,2.821-0.637,4.968-1.91,6.443
				c-1.273,1.474-3.127,2.211-5.56,2.211c-2.417,0-4.263-0.737-5.536-2.211c-1.273-1.474-1.91-3.622-1.91-6.443
				c0-2.82,0.632-4.951,1.897-6.394c1.265-1.442,3.114-2.164,5.548-2.164S90.006,12.691,91.28,14.133z M81.815,15.511
				c-0.894,1.137-1.342,2.809-1.342,5.016c0,2.224,0.448,3.916,1.342,5.077c0.895,1.161,2.196,1.741,3.904,1.741
				s3.013-0.58,3.916-1.741c0.903-1.16,1.354-2.853,1.354-5.077c0-2.207-0.451-3.88-1.354-5.016
				c-0.903-1.136-2.208-1.704-3.916-1.704S82.71,14.375,81.815,15.511z"/>
			<path fill="#6EDBD5" d="M162.132,12.598v15.954c0,0.355-0.323,0.532-0.967,0.532h-0.194c-0.644,0-0.967-0.177-0.967-0.532v-7.276
				h-8.751v7.276c0,0.355-0.323,0.532-0.968,0.532h-0.193c-0.645,0-0.967-0.177-0.967-0.532V12.598c0-0.355,0.322-0.532,0.967-0.532
				h0.193c0.645,0,0.968,0.178,0.968,0.532v6.841h8.751v-6.841c0-0.355,0.323-0.532,0.967-0.532h0.194
				C161.809,12.066,162.132,12.244,162.132,12.598z"/>
			<path fill="#6EDBD5" d="M178.884,14.133c1.273,1.443,1.909,3.574,1.909,6.394c0,2.821-0.636,4.968-1.909,6.443
				c-1.274,1.474-3.127,2.211-5.561,2.211c-2.417,0-4.263-0.737-5.536-2.211s-1.909-3.622-1.909-6.443
				c0-2.82,0.632-4.951,1.897-6.394c1.265-1.442,3.114-2.164,5.548-2.164C175.757,11.97,177.61,12.691,178.884,14.133z
				 M169.419,15.511c-0.894,1.137-1.342,2.809-1.342,5.016c0,2.224,0.448,3.916,1.342,5.077c0.894,1.161,2.196,1.741,3.904,1.741
				s3.014-0.58,3.916-1.741c0.903-1.16,1.354-2.853,1.354-5.077c0-2.207-0.451-3.88-1.354-5.016
				c-0.902-1.136-2.207-1.704-3.916-1.704S170.314,14.375,169.419,15.511z"/>
			<path fill="#6EDBD5" d="M193.666,13.142c0.975,0.685,1.463,1.769,1.463,3.251c0,0.999-0.242,1.841-0.726,2.526
				c-0.483,0.685-1.169,1.205-2.055,1.559v0.097c0.467,0.161,0.859,0.476,1.173,0.943c0.315,0.468,0.649,1.16,1.003,2.079
				l1.886,4.762c0.048,0.145,0.073,0.258,0.073,0.338c0,0.258-0.338,0.387-1.015,0.387h-0.242c-0.242,0-0.452-0.036-0.629-0.108
				c-0.178-0.073-0.29-0.165-0.338-0.278l-1.837-4.738c-0.354-0.919-0.798-1.543-1.33-1.873c-0.531-0.33-1.289-0.496-2.272-0.496
				h-2.175v6.962c0,0.355-0.323,0.532-0.968,0.532h-0.193c-0.645,0-0.967-0.177-0.967-0.532V12.84c0-0.258,0.056-0.443,0.169-0.556
				c0.112-0.113,0.298-0.169,0.556-0.169h4.062C191.237,12.115,192.691,12.457,193.666,13.142z M186.644,13.952v5.802h3.191
				c0.564,0,1.083-0.137,1.559-0.411c0.475-0.274,0.85-0.636,1.123-1.088c0.274-0.451,0.411-0.943,0.411-1.474
				c0-0.951-0.29-1.66-0.87-2.127c-0.58-0.467-1.378-0.701-2.394-0.701H186.644z"/>
			<path fill="#6EDBD5" d="M205.643,12.453l5.729,15.907c0.048,0.113,0.073,0.217,0.073,0.314c0,0.274-0.346,0.411-1.04,0.411
				h-0.193c-0.565,0-0.887-0.129-0.967-0.387l-1.426-3.964h-7.108l-1.377,3.964c-0.082,0.258-0.403,0.387-0.967,0.387h-0.121
				c-0.693,0-1.04-0.137-1.04-0.411c0-0.08,0.024-0.193,0.073-0.338l5.729-15.882c0.081-0.258,0.402-0.387,0.967-0.387h0.701
				C205.24,12.066,205.563,12.196,205.643,12.453z M204.29,14.29c-0.13,0.645-0.251,1.112-0.363,1.402l-2.538,7.204h5.777
				l-2.538-7.204c-0.081-0.258-0.178-0.725-0.29-1.402H204.29z"/>
			<path fill="#6EDBD5" d="M219.966,12.163c0.621,0.129,1.148,0.306,1.584,0.532c0.435,0.226,0.652,0.476,0.652,0.75
				c0,0.178-0.1,0.435-0.302,0.774c-0.202,0.338-0.359,0.508-0.471,0.508c-0.065,0-0.146-0.024-0.242-0.072
				c-0.096-0.049-0.177-0.089-0.242-0.121c-0.854-0.483-1.749-0.725-2.683-0.725c-0.934,0-1.688,0.242-2.259,0.725
				c-0.572,0.483-0.859,1.152-0.859,2.006c0,0.548,0.141,0.995,0.423,1.342c0.282,0.347,0.617,0.609,1.003,0.786
				c0.387,0.178,1.007,0.427,1.861,0.75c0.968,0.371,1.757,0.729,2.37,1.076c0.612,0.347,1.132,0.846,1.559,1.499
				c0.427,0.653,0.64,1.487,0.64,2.502c0,1.45-0.483,2.595-1.45,3.433c-0.967,0.838-2.272,1.256-3.917,1.256
				c-0.886,0-1.713-0.096-2.478-0.289c-0.765-0.194-1.377-0.432-1.836-0.713c-0.459-0.282-0.69-0.536-0.69-0.762
				c0-0.193,0.109-0.459,0.327-0.798c0.217-0.338,0.391-0.508,0.519-0.508c0.049,0,0.202,0.073,0.459,0.217
				c0.58,0.307,1.145,0.553,1.693,0.738c0.547,0.186,1.217,0.278,2.006,0.278c0.935,0,1.697-0.262,2.285-0.786
				c0.588-0.523,0.882-1.213,0.882-2.067c0-0.596-0.161-1.091-0.484-1.486c-0.323-0.395-0.713-0.709-1.173-0.943
				c-0.458-0.234-1.123-0.52-1.994-0.858c-0.934-0.371-1.676-0.709-2.224-1.016c-0.548-0.306-1.015-0.761-1.402-1.366
				c-0.388-0.604-0.58-1.398-0.58-2.381c0-0.871,0.221-1.644,0.665-2.321c0.443-0.677,1.071-1.204,1.886-1.583
				c0.813-0.379,1.752-0.568,2.816-0.568C218.794,11.97,219.346,12.034,219.966,12.163z"/>
		</g>
		<path fill="#6EDBD5" d="M100.964,28.81l4.18-5.468c0.649-0.858,1.231-1.613,1.747-2.261c0.515-0.649,0.949-1.245,1.302-1.789
			c0.353-0.545,0.619-1.05,0.801-1.518c0.181-0.467,0.273-0.94,0.273-1.417c0-0.802-0.282-1.421-0.845-1.86
			c-0.563-0.439-1.351-0.659-2.362-0.659c-0.42,0-0.787,0.019-1.102,0.057c-0.315,0.038-0.615,0.096-0.901,0.171
			c-0.287,0.077-0.568,0.167-0.845,0.272c-0.277,0.106-0.568,0.225-0.873,0.359c-0.248-0.535-0.462-1.079-0.644-1.633
			c-0.182-0.553-0.292-1.116-0.329-1.689c0.458-0.171,0.882-0.328,1.274-0.472c0.391-0.142,0.787-0.257,1.188-0.343
			c0.401-0.086,0.816-0.152,1.246-0.199c0.429-0.048,0.921-0.073,1.474-0.073c1.012,0,1.947,0.111,2.806,0.329
			c0.859,0.22,1.599,0.559,2.219,1.016c0.619,0.458,1.102,1.035,1.445,1.732c0.343,0.697,0.516,1.513,0.516,2.448
			c0,0.687-0.096,1.346-0.287,1.975c-0.19,0.631-0.457,1.255-0.802,1.876c-0.343,0.62-0.748,1.26-1.217,1.918
			c-0.467,0.659-0.987,1.37-1.56,2.133l-1.517,2.033h6.098c0.115,0.572,0.172,1.136,0.172,1.689c0,0.63-0.057,1.231-0.172,1.803
			h-13.083L100.964,28.81z"/>
		<path fill="#6EDBD5" d="M135.356,26.799l-5.127-3.448l-0.05,1.253l-1.254-0.082v-5.647c-0.343-0.038-0.687-0.072-1.03-0.101
			c-0.343-0.028-0.476-0.042-0.82-0.042c-0.324,0-0.428,0.014-0.733,0.042c-0.306,0.029-0.62,0.062-0.945,0.101v5.418l-4.509-0.292
			l4.239-10.965l1.784-0.002l-0.837-7.146l-5.561,7.153l1.813-0.002l-7.017,13.48l0.258,0.4h0.047l9.784,0.895v3.113
			c0.343,0.037,0.687,0.072,1.03,0.1c0.343,0.029,0.476,0.043,0.82,0.043c0.324,0,0.428-0.014,0.733-0.043
			c0.305-0.028,0.62-0.062,0.945-0.1v-2.791l1.107,0.101l-0.052,1.277L135.356,26.799z M118.965,24.595
			c-0.129,0.385-0.463,0.695-0.747,0.694c-0.284-0.001-0.41-0.313-0.281-0.698c0.129-0.384,0.464-0.695,0.748-0.694
			C118.969,23.898,119.094,24.21,118.965,24.595"/>
		<path fill="#6EDBD5" d="M141.992,13.647c-0.058-0.728-0.152-1.456-0.286-2.182c-0.262-1.45-0.691-2.886-1.31-4.26
			c-0.617-1.373-1.46-2.672-2.524-3.788c-1.061-1.118-2.371-2.022-3.798-2.602c-1.428-0.585-2.957-0.831-4.44-0.815
			c-1.485,0.016-2.931,0.282-4.301,0.713c-1.371,0.432-2.666,1.027-3.885,1.727c-1.221,0.699-2.361,1.508-3.442,2.378
			c-2.068,1.676-3.894,3.601-5.521,5.664c0.136,0.103,0.266,0.211,0.392,0.321c0.821-0.929,1.696-1.806,2.61-2.635
			c0.996-0.907,2.055-1.739,3.157-2.494c1.103-0.755,2.261-1.418,3.458-1.972c1.197-0.553,2.437-0.99,3.695-1.267
			c1.257-0.276,2.534-0.389,3.772-0.291c1.237,0.096,2.423,0.415,3.479,0.952c0.529,0.267,1.023,0.59,1.48,0.96
			c0.455,0.372,0.872,0.79,1.25,1.244c0.757,0.909,1.336,1.974,1.777,3.107c0.22,0.567,0.401,1.154,0.547,1.754
			c0.145,0.6,0.259,1.211,0.344,1.829c0.084,0.619,0.138,1.245,0.166,1.875c0.027,0.63,0.028,1.263,0.007,1.898
			c-0.093,2.541-0.556,5.093-1.267,7.584c-0.713,2.491-1.68,4.919-2.859,7.244c-1.182,2.324-2.574,4.548-4.166,6.619
			c-1.599,2.065-3.395,3.986-5.416,5.631c-1.011,0.819-2.072,1.576-3.194,2.225c-1.121,0.65-2.3,1.195-3.525,1.588
			c-1.225,0.393-2.5,0.632-3.781,0.654c-1.279,0.021-2.565-0.178-3.759-0.658c-1.194-0.475-2.294-1.217-3.202-2.165
			c-0.913-0.945-1.655-2.071-2.207-3.29c-0.555-1.218-0.828-2.494-1.071-3.824c-0.124-0.665-0.187-1.36-0.243-2.036
			c-0.058-0.675-0.084-1.354-0.08-2.033c0.005-0.867,0.087-1.733,0.188-2.597h-0.248c-0.106,0.861-0.178,1.726-0.209,2.595
			c-0.022,0.681-0.019,1.365,0.01,2.048c0.032,0.682,0.094,1.365,0.186,2.044c0.191,1.356,0.505,2.704,1.009,3.995
			c0.507,1.287,1.184,2.527,2.094,3.608c0.454,0.539,0.962,1.039,1.518,1.486c0.557,0.444,1.164,0.834,1.809,1.153
			c0.645,0.319,1.324,0.573,2.023,0.758c0.699,0.183,1.415,0.298,2.135,0.351c1.441,0.105,2.892-0.035,4.294-0.35
			c1.403-0.315,2.759-0.803,4.054-1.405c1.294-0.605,2.533-1.32,3.705-2.126c1.17-0.806,2.287-1.689,3.335-2.645
			c1.049-0.954,2.045-1.966,2.97-3.039c1.861-2.135,3.48-4.48,4.838-6.971c1.356-2.492,2.452-5.134,3.236-7.876
			c0.781-2.741,1.259-5.597,1.277-8.502C142.08,15.104,142.052,14.375,141.992,13.647"/>
		<path fill="#F5F5F5" d="M117.606,24.622c0.207-0.62,0.748-1.122,1.206-1.12c0.458,0.002,0.662,0.506,0.453,1.126
			c-0.207,0.62-0.748,1.122-1.207,1.12C117.6,25.746,117.398,25.242,117.606,24.622"/>
		<g>
			<g>
				<defs>
					<rect id="SVGID_1_" x="125.394" y="22.601" width="3.531" height="1.919"/>
				</defs>
				<clipPath id="SVGID_2_">
					<use xlink:href="#SVGID_1_"  overflow="visible"/>
				</clipPath>
				<g clip-path="url(#SVGID_2_)">
					<defs>
						<polygon id="SVGID_3_" points="125.394,24.296 128.925,24.52 128.925,22.948 125.394,22.601 						"/>
					</defs>
					<clipPath id="SVGID_4_">
						<use xlink:href="#SVGID_3_"  overflow="visible"/>
					</clipPath>
					
						<linearGradient id="SVGID_5_" gradientUnits="userSpaceOnUse" x1="0.5121" y1="48.5472" x2="1.5191" y2="48.5472" gradientTransform="matrix(-0.1092 -2.0835 -2.0835 0.1092 228.4194 20.3754)">
						<stop  offset="0" style="stop-color:#DADADA"/>
						<stop  offset="0.0894" style="stop-color:#E2E2E2"/>
						<stop  offset="0.3466" style="stop-color:#F2F2F2"/>
						<stop  offset="0.6322" style="stop-color:#FCFCFC"/>
						<stop  offset="1" style="stop-color:#FFFFFF"/>
					</linearGradient>
					<polygon clip-path="url(#SVGID_4_)" fill="url(#SVGID_5_)" points="125.403,24.704 125.293,22.606 128.916,22.416 
						129.025,24.515 					"/>
				</g>
			</g>
		</g>
		<g>
			<g>
				<defs>
					<rect id="SVGID_6_" x="119.619" y="23.997" width="4.116" height="3.666"/>
				</defs>
				<clipPath id="SVGID_7_">
					<use xlink:href="#SVGID_6_"  overflow="visible"/>
				</clipPath>
				<g clip-path="url(#SVGID_7_)">
					<defs>
						<polygon id="SVGID_8_" points="120.888,23.997 119.619,27.285 123.735,27.662 123.322,24.16 						"/>
					</defs>
					<clipPath id="SVGID_9_">
						<use xlink:href="#SVGID_8_"  overflow="visible"/>
					</clipPath>
					
						<linearGradient id="SVGID_10_" gradientUnits="userSpaceOnUse" x1="0.5304" y1="48.6017" x2="1.5377" y2="48.6017" gradientTransform="matrix(4.086 -1.902000e-04 -1.902000e-04 -4.086 117.4609 224.418)">
						<stop  offset="0" style="stop-color:#EDEDED"/>
						<stop  offset="0.0743" style="stop-color:#F2F2F2"/>
						<stop  offset="0.2848" style="stop-color:#F9F9F9"/>
						<stop  offset="0.7939" style="stop-color:#FBFBFB"/>
						<stop  offset="1" style="stop-color:#FFFFFF"/>
					</linearGradient>
					<rect x="119.619" y="23.997" clip-path="url(#SVGID_9_)" fill="url(#SVGID_10_)" width="4.116" height="3.666"/>
				</g>
			</g>
		</g>
		<g>
			<g>
				<defs>
					<rect id="SVGID_11_" x="125.394" y="27.815" width="3.531" height="2.05"/>
				</defs>
				<clipPath id="SVGID_12_">
					<use xlink:href="#SVGID_11_"  overflow="visible"/>
				</clipPath>
				<g clip-path="url(#SVGID_12_)">
					<defs>
						<polygon id="SVGID_13_" points="128.925,28.137 125.394,27.815 125.394,29.02 128.925,29.865 						"/>
					</defs>
					<clipPath id="SVGID_14_">
						<use xlink:href="#SVGID_13_"  overflow="visible"/>
					</clipPath>
					
						<linearGradient id="SVGID_15_" gradientUnits="userSpaceOnUse" x1="0.5261" y1="48.6646" x2="1.5334" y2="48.6646" gradientTransform="matrix(-0.0968 1.8465 1.8465 0.0968 37.3985 22.2291)">
						<stop  offset="0" style="stop-color:#DADADA"/>
						<stop  offset="0.0894" style="stop-color:#E2E2E2"/>
						<stop  offset="0.3466" style="stop-color:#F2F2F2"/>
						<stop  offset="0.6322" style="stop-color:#FCFCFC"/>
						<stop  offset="1" style="stop-color:#FFFFFF"/>
					</linearGradient>
					<polygon clip-path="url(#SVGID_14_)" fill="url(#SVGID_15_)" points="129.032,27.82 128.916,30.05 125.287,29.86 
						125.403,27.63 					"/>
				</g>
			</g>
		</g>
	</g>
</g>
</svg>
