<?xml version="1.0" encoding="utf-8"?>
<!-- Generator: Adobe Illustrator 17.0.0, SVG Export Plug-In . SVG Version: 6.00 Build 0)  -->
<!DOCTYPE svg PUBLIC "-//W3C//DTD SVG 1.1//EN" "http://www.w3.org/Graphics/SVG/1.1/DTD/svg11.dtd">
<svg version="1.1" id="building-icon" xmlns="http://www.w3.org/2000/svg" xmlns:xlink="http://www.w3.org/1999/xlink" x="0px"
	 y="0px" width="34.548px" height="31.287px" viewBox="0 0 34.548 31.287" enable-background="new 0 0 34.548 31.287"
	 xml:space="preserve">
<g>
	<path fill="#FFFFFF" d="M34.203,12.373L17.704,0.166c-0.301-0.222-0.712-0.222-1.013,0.002L0.343,12.345
		c-0.294,0.219-0.415,0.601-0.299,0.948c0.115,0.348,0.44,0.583,0.807,0.583h2.124v16.562c0,0.469,0.38,0.85,0.85,0.85h26.76
		c0.466,0,0.845-0.375,0.85-0.841l0.169-16.541h2.096c0.367,0,0.692-0.235,0.807-0.583C34.62,12.974,34.498,12.592,34.203,12.373z
		 M29.742,29.588h-5.108c0.002-0.033,0.008-0.065,0.007-0.096c-0.009-0.344-0.149-0.628-0.42-0.844
		c-0.025-0.028-0.046-0.063-0.077-0.082c-0.082-0.052-0.174-0.153-0.268-0.08c-0.086,0.066-0.01,0.177,0.021,0.259
		c0.067,0.177,0.127,0.347,0.048,0.54c-0.036,0.088-0.092,0.156-0.154,0.219c-0.029,0.029-0.059,0.057-0.089,0.085h-1.026
		c0.045-0.052,0.089-0.104,0.134-0.156c0.265-0.309,0.372-0.663,0.334-1.069c-0.046-0.496-0.248-0.939-0.452-1.38
		c-0.445-0.961-0.938-1.902-1.187-2.942c-0.012-0.05-0.018-0.102-0.026-0.154c-0.013-0.085-0.03-0.169-0.088-0.24c0,0,0,0,0,0
		c0.007-0.369-0.064-0.732-0.063-1.102c0-0.085,0.006-0.165,0.022-0.239c0.034-0.162,0.113-0.297,0.275-0.4
		c0,0.001-0.001,0.001-0.001,0.001c0.046-0.007,0.095-0.005,0.136-0.022c0.726-0.305,1.094-1.205,0.784-1.929
		c-0.051-0.119-0.077-0.233-0.076-0.362c0.001-0.356-0.072-0.7-0.171-1.041c-0.052-0.179-0.121-0.186-0.25-0.069
		c-0.151,0.137-0.316,0.258-0.464,0.398c-0.107,0.101-0.208,0.129-0.355,0.088c-0.456-0.125-0.917-0.122-1.371,0.007
		c-0.143,0.04-0.227,0.001-0.333-0.087c-0.049-0.04-0.093-0.086-0.138-0.132c-0.018-0.018-0.036-0.036-0.054-0.053
		c-0.084-0.08-0.175-0.149-0.302-0.167c-0.196-0.122-0.214-0.017-0.228,0.092c-0.005,0.036-0.009,0.073-0.02,0.102
		c-0.074,0.059-0.078,0.146-0.092,0.229c-0.077,0.443-0.029,0.907-0.218,1.333c-0.018,0.04-0.012,0.093-0.012,0.14
		c0,0.681,0.316,1.169,0.922,1.464c0.23,0.112,0.357,0.272,0.361,0.527c0.002,0.125,0.012,0.251,0.001,0.375
		c-0.068,0.779-0.309,1.518-0.521,2.263c-0.302,1.062-0.661,2.112-0.788,3.215c-0.018,0.156-0.037,0.313-0.041,0.47
		c-0.001,0.026-0.001,0.052,0,0.078c0.001,0.078,0.008,0.156,0.021,0.232c0.004,0.026,0.01,0.051,0.016,0.076
		c0.03,0.126,0.082,0.25,0.166,0.368c-0.001,0-0.001-0.001-0.002-0.001c0.013,0.031,0.031,0.057,0.048,0.084h-2.108
		c-0.009-0.052-0.015-0.106-0.015-0.165c-0.005-0.558-0.019-1.115-0.042-1.673c-0.084-2.024-0.128-4.051-0.483-6.053
		c-0.017-0.094-0.017-0.168,0.061-0.231c0.115-0.092,0.142-0.217,0.138-0.358c-0.007-0.228,0.003-0.456-0.015-0.683
		c-0.007-0.094-0.013-0.188-0.018-0.282c-0.003-0.05-0.006-0.101-0.009-0.151c-0.015-0.232-0.037-0.463-0.097-0.69
		c-0.002-0.076-0.005-0.153-0.007-0.229c0.008-0.222-0.058-0.434-0.087-0.651c-0.013-0.096-0.009-0.16,0.021-0.199
		c0.013-0.017,0.03-0.029,0.053-0.038c0.016-0.006,0.034-0.01,0.055-0.012c0.039-0.004,0.088-0.002,0.148,0.005
		c0.076,0.157,0.198,0.279,0.312,0.407c0.061,0.068,0.127,0.185,0.214,0.155c0.086-0.029,0.068-0.164,0.072-0.252
		c0.02-0.423,0.015-0.848,0.046-1.271c0.038-0.516,0.05-0.516-0.468-0.489c-0.141,0.008-0.282,0.017-0.423,0.034
		c-0.02,0.002-0.04,0.004-0.06,0.005c-0.088,0.004-0.179,0.006-0.242,0.091c-0.005,0.001-0.011,0.001-0.016,0.001
		c-0.002,0-0.003,0-0.005,0c-0.004,0-0.008,0-0.011,0c-0.003,0-0.007,0-0.01-0.001c-0.002,0-0.004,0-0.007,0
		c-0.005,0-0.011-0.001-0.016-0.002c0,0,0,0-0.001,0c-0.003,0-0.007-0.001-0.01-0.001c-0.003,0-0.005-0.001-0.008-0.001
		c-0.021-0.003-0.043-0.006-0.064-0.006c-0.011,0-0.022,0.001-0.032,0.003c-0.026,0.005-0.052,0.016-0.076,0.041
		c-0.345-0.001-0.691,0.008-1.036-0.007c-0.147-0.006-0.291,0.05-0.442-0.008c-0.443-0.169-0.908-0.147-1.371-0.129
		c-0.088,0.003-0.13,0.038-0.114,0.132c0.089,0.545,0.07,1.097,0.092,1.646c0.003,0.084,0.016,0.164,0.068,0.241
		c0.207-0.128,0.329-0.313,0.47-0.48c0.058-0.069,0.076-0.196,0.23-0.125c0.136,0.062,0.135,0.148,0.113,0.265
		c-0.162,0.875-0.236,1.759-0.23,2.649c0.001,0.168-0.003,0.33,0.167,0.434c0.081,0.049,0.064,0.129,0.052,0.211
		c-0.331,2.34-0.965,4.59-1.976,6.73c-0.082,0.174-0.148,0.261-0.324,0.094c-0.019-0.018-0.038-0.037-0.059-0.055
		c-0.061-0.054-0.13-0.102-0.217-0.114c-0.099-0.048-0.197-0.096-0.296-0.145c-0.062-0.074-0.114-0.119-0.165-0.134
		c-0.009-0.003-0.017-0.004-0.026-0.005c-0.009-0.001-0.017-0.001-0.026,0c-0.014,0.001-0.028,0.006-0.042,0.011
		c-0.012,0.005-0.025,0.011-0.038,0.019c-0.014,0.009-0.029,0.021-0.045,0.034c-0.014,0.012-0.029,0.026-0.045,0.042
		c0,0-0.001,0.001-0.001,0.001c-0.022,0.022-0.044,0.048-0.069,0.077c0,0,0,0,0,0c-0.214,0.24-0.215,0.249,0.008,0.47
		c0.014,0.014,0.028,0.027,0.042,0.039c0.044,0.038,0.09,0.073,0.134,0.111v0c0,0,0,0,0,0c0,0,0-0.001,0-0.001
		c0.095,0.094,0.19,0.188,0.285,0.282l0,0c0,0,0,0,0,0c0.011,0.017,0.023,0.032,0.037,0.046c0.043,0.042,0.097,0.07,0.148,0.101
		c0,0,0,0,0,0c0.092,0.09,0.183,0.182,0.276,0.269H4.673V13.906h25.23L29.742,29.588z M30.764,12.207c-0.002,0-0.004,0-0.006,0
		H4.051c-0.073-0.02-0.149-0.031-0.228-0.031h-0.41L17.2,1.908l13.921,10.299H30.764z"/>
	<polygon fill="#FFFFFF" points="16.349,3.701 16.349,6.72 13.537,6.72 13.537,8.419 16.349,8.419 16.349,11.342 18.049,11.342 
		18.049,8.419 21.052,8.419 21.052,6.72 18.049,6.72 18.049,3.701 	"/>
</g>
</svg>
