<svg version="1.1" id="check-icon" xmlns="http://www.w3.org/2000/svg" xmlns:xlink="http://www.w3.org/1999/xlink" x="0px" y="0px"
	 width="30px" height="30px" viewBox="0 0 30 30" enable-background="new 0 0 30 30" xml:space="preserve">
<g>
	<path fill="#FFFFFF" d="M12.056,22.265c-0.156,0-0.311-0.06-0.429-0.178L4.58,15.04c-0.237-0.237-0.237-0.621,0-0.858
		c0.237-0.237,0.621-0.237,0.858,0l6.618,6.618L27.3,5.556c0.236-0.237,0.622-0.237,0.858,0c0.237,0.237,0.237,0.621,0,0.858
		L12.485,22.087C12.366,22.205,12.211,22.265,12.056,22.265z"/>
	<path fill="#FFFFFF" d="M15,30C6.729,30,0,23.271,0,15S6.729,0,15,0c3.026,0,5.942,0.897,8.434,2.594
		c0.276,0.189,0.348,0.566,0.159,0.843c-0.188,0.277-0.564,0.349-0.843,0.16C20.461,2.038,17.781,1.213,15,1.213
		C7.398,1.213,1.213,7.398,1.213,15S7.398,28.786,15,28.786S28.786,22.602,28.786,15c0-0.381-0.015-0.757-0.046-1.13
		c-0.027-0.334,0.221-0.627,0.555-0.654c0.326-0.026,0.628,0.221,0.655,0.555C29.983,14.176,30,14.586,30,15
		C30,23.271,23.271,30,15,30z"/>
</g>
</svg>
