<?xml version="1.0" encoding="utf-8"?>
<!-- Generator: Adobe Illustrator 17.0.0, SVG Export Plug-In . SVG Version: 6.00 Build 0)  -->
<svg version="1.1" id="Layer_1" xmlns="http://www.w3.org/2000/svg" xmlns:xlink="http://www.w3.org/1999/xlink" x="0px" y="0px"
	 width="50.114px" height="47px" viewBox="0 0 50.114 47" enable-background="new 0 0 50.114 47" xml:space="preserve">
<path fill="#FFFFFF" d="M25.057,47c-1.307,0-2.367-1.06-2.367-2.367V2.367C22.69,1.06,23.75,0,25.057,0
	c1.307,0,2.367,1.06,2.367,2.367v42.267C27.423,45.94,26.364,47,25.057,47z"/>
<path fill="#FFFFFF" d="M44.573,16.036H29.304c-0.385,0-0.697-0.312-0.697-0.697V9.041c0-0.385,0.312-0.697,0.697-0.697h15.269
	c0.135,0,0.267,0.039,0.38,0.113l4.845,3.149c0.423,0.275,0.423,0.893,0,1.168l-4.845,3.149
	C44.839,15.997,44.707,16.036,44.573,16.036z"/>
<path fill="#FFFFFF" d="M5.542,13.274h15.269c0.385,0,0.697,0.312,0.697,0.697v6.299c0,0.385-0.312,0.697-0.697,0.697H5.542
	c-0.135,0-0.267-0.039-0.38-0.113l-4.845-3.149c-0.423-0.275-0.423-0.893,0-1.168l4.845-3.149
	C5.275,13.313,5.407,13.274,5.542,13.274z"/>
</svg>
