<?xml version="1.0" encoding="utf-8"?>
<!-- Generator: Adobe Illustrator 17.0.0, SVG Export Plug-In . SVG Version: 6.00 Build 0)  -->
<svg version="1.1" id="Layer_1" xmlns="http://www.w3.org/2000/svg" xmlns:xlink="http://www.w3.org/1999/xlink" x="0px" y="0px"
	 width="47px" height="47px" viewBox="0 0 47 47" enable-background="new 0 0 47 47" xml:space="preserve">
<path fill="#FFFFFF" d="M23.549,29.202l0.013-0.013l-5.895-4.892L23.549,29.202z M8.531,16.709l2.151-1.409v3.194L8.531,16.709z
	 M36.167,15.276l2.162,1.435l-2.162,1.829V15.276z M17.667,24.297l-6.003-5.008V9.685h23.52v9.608l-11.622,9.898l-0.013,0.011
	L17.667,24.297z M23.525,6.882l2.74,1.82h-5.517L23.525,6.882z M23.527,5.706l-4.573,2.996h-8.273v5.424l-3.465,2.272v19.789h32.419
	V16.4l-3.469-2.304V8.702h-8.125L23.527,5.706z"/>
<path fill="#FFFFFF" d="M23.409,19.314c0.27,0,0.51-0.15,0.841-0.599l0.33-1.892c-0.106-0.209-0.33-0.36-0.601-0.36
	c-0.78,0-1.26,1.172-1.26,1.982C22.718,18.999,22.958,19.314,23.409,19.314 M24.58,11.39c3.332,0,5.462,2.282,5.462,5.493
	c0,2.792-1.92,4.172-3.572,4.172c-0.885,0-1.62-0.42-1.8-1.141h-0.03c-0.391,0.601-1.201,0.992-1.801,0.992
	c-1.231,0-2.041-0.931-2.041-2.312c0-1.92,1.38-3.751,3.091-3.751c0.48,0,0.87,0.21,1.111,0.75h0.029l0.24-0.63h1.562l-0.722,3.422
	c-0.179,0.75,0.03,1.111,0.631,1.111c0.901,0,1.711-1.02,1.711-2.552c0-2.04-1.051-4.021-4.082-4.021
	c-2.522,0-5.043,2.161-5.043,5.493c0,2.971,2.102,4.291,4.353,4.291c0.72,0,1.62-0.24,2.22-0.54l0.541,1.381
	c-0.931,0.48-1.891,0.69-2.971,0.69c-3.032,0-5.853-1.801-5.853-5.762C17.616,14.212,20.767,11.39,24.58,11.39"/>
<path fill="#FFFFFF" d="M23.5,47C10.542,47,0,36.458,0,23.5S10.542,0,23.5,0S47,10.542,47,23.5S36.458,47,23.5,47z M23.5,1.324
	c-12.228,0-22.176,9.948-22.176,22.176c0,12.228,9.948,22.176,22.176,22.176S45.676,35.728,45.676,23.5
	C45.676,11.272,35.728,1.324,23.5,1.324z"/>
</svg>
