<svg version="1.1" id="contact-icon" xmlns="http://www.w3.org/2000/svg" xmlns:xlink="http://www.w3.org/1999/xlink" x="0px" y="0px"
	 width="30.784px" height="30.841px" viewBox="0 0 30.784 30.841" enable-background="new 0 0 30.784 30.841" xml:space="preserve">
<path fill="#477BBF" d="M30.784,20.241c0-5.198-3.745-9.574-8.804-10.436C21.25,3.158,14.507-1.398,8.067,0.406
	C1.082,2.363-2.177,10.781,1.74,16.926L0,22.237l5.095-1.946c1.406,0.903,2.985,1.452,4.634,1.648
	c1.172,7.31,9.655,11.233,15.99,7.343l4.636,1.347l-0.943-5.166C30.311,23.873,30.784,22.076,30.784,20.241z M5.292,18.61
	l-2.886,1.102l0.988-3.016l-0.21-0.306C0.34,12.247,1.308,6.458,5.294,3.432c3.663-2.78,8.943-2.484,12.28,0.676
	c3.335,3.159,3.926,8.413,1.35,12.223c-2.78,4.112-8.445,5.419-12.732,2.873c-0.196-0.116-0.388-0.24-0.575-0.37L5.292,18.61z
	 M28.442,28.51l-2.964-0.861l-0.289,0.191c-5.307,3.505-12.704,0.412-13.933-5.812c5.777-0.114,10.625-4.921,10.789-10.697
	c6.027,1.247,9.128,8.316,5.935,13.604l-0.146,0.243L28.442,28.51z"/>
</svg>
