<svg version="1.1" id="grooming-logo" xmlns="http://www.w3.org/2000/svg" xmlns:xlink="http://www.w3.org/1999/xlink" x="0px"
	 y="0px" width="202px" height="202.416px" viewBox="0 0 202 202.416" enable-background="new 0 0 202 202.416"
	 xml:space="preserve">
<g>
	<g>
		<g>
			<path fill="#ED60A1" d="M107.291,133.069c-6.763,7.392-10.537-1.101-10.537-1.101l5.069-22.963L107.291,133.069z"/>
			<path fill="#F0DCAA" d="M101.63,112.536c0,2.699-0.585,6.058-0.585,6.058c-0.747,3.581-1.92,8.993-2.755,11.86
				c-0.859,2.957-2.072,4.732-2.072,4.732c-1.656,2.669-2.511,3.589-4.724,3.906c-2.321,0.331-4.144-6.797-4.144-6.797
				s-0.498,5.138-3.481,4.476c-2.983-0.665-4.806-8.123-5.304-7.458c-0.498,0.662-1.323,7.953-4.308,5.967
				c-2.983-1.991-3.812-9.282-3.812-9.282s0.331-5.969-0.662,0c-0.997,5.967-3.318,6.297-3.318,6.297c-0.732,0.379-1.158,0-1.158,0
				c-2.321-0.167-4.31-14.919-4.31-14.919c-0.829,3.98-0.332,7.956-4.145,8.288c-0.287,0.027-0.559-0.035-0.817-0.167
				c-3.162-1.642-4.155-14.251-4.155-14.251c-1.324-3.15,2.156,5.468-4.144,5.305c-0.393-0.011-0.758-0.135-1.1-0.36
				c-5.095-3.359-4.348-29.141-4.348-29.141v-1.079c-0.574,0.996-0.95,1.559-0.95,1.559c-1.716,2.139-3.721,4.133-3.721,4.133
				c-4.29,4.63-6.785,0.689-6.785,0.689c-1.824-2.817,0-9.612,0-9.612c-4.31,10.11-6.133,7.956-6.133,7.956
				c-0.138-0.105-0.267-0.226-0.383-0.361c-2.325-2.617-1.276-10.412-1.276-10.412c4.174-23.385,11.957-43.956,13.492-47.886
				c0,0,0.725-2.386,1.51-1.994l-0.297-0.154c-1.184-0.639-2.203-1.287-2.203-1.287c-7.252-4.601-4.046-7.516-4.046-7.516
				s0.998-1.392,4.474-1.371c2.04,0.008,4.583,0.319,7.45,1.306c0.326-0.395,1.17-1.306,1.17-1.306
				c3.482-3.86,11.434,1.371,11.434,1.371s19.421-8.699,40.359-5.492c0,0,0.577-0.057,0.917-0.71c0,0,6.955-14.019,13.751-14.846
				c6.797-0.829-2.32,12.429-1.658,12.926c0.662,0.499,11.769-10.607,12.929-6.628c1.161,3.977-7.127,8.974-4.643,8.548v0.009
				c16.371,0.278,29.573,6.193,29.573,6.193c9.38,3.195,16.34,10.552,16.34,10.552c3.229,1.187,5.225,5.985,5.225,5.985
				c3.019,8.468,8.255,24.577,11.415,42.3c0,0,1.052,7.795-1.272,10.412c-0.117,0.135-0.246,0.256-0.384,0.361
				c0,0-1.823,2.153-6.133-7.956c0,0,1.823,6.796,0,9.612c0,0-2.493,3.941-6.783-0.689c0,0-2.005-1.994-3.722-4.133
				c0,0-0.375-0.562-0.947-1.556l-0.002-0.003v1.079c0,0,0.747,25.782-4.35,29.141c-0.34,0.225-0.706,0.349-1.099,0.36
				c-6.3,0.164-2.819-8.455-4.143-5.305c0,0-0.994,12.61-4.155,14.251c-0.258,0.132-0.531,0.193-0.818,0.167
				c-3.812-0.332-3.315-4.308-4.144-8.288c0,0-1.99,14.752-4.311,14.919c0,0-0.425,0.379-1.158,0c0,0-2.321-0.331-3.317-6.297
				c-0.994-5.969-0.662,0-0.662,0s-0.83,7.291-3.812,9.282c-2.983,1.986-3.81-5.305-4.31-5.967
				c-0.496-0.665-2.319,6.793-5.303,7.458c-2.983,0.662-3.482-4.476-3.482-4.476s-1.823,7.127-4.144,6.797
				c-2.212-0.317-3.067-1.237-4.723-3.906c0,0-1.214-1.776-2.072-4.732c-0.835-2.867-2.008-8.279-2.756-11.86
				c0,0-0.585-3.359-0.585-6.058"/>
			<path fill="#382E14" d="M112.554,102.024c0,0-1.002-1.541-3.965-2.007c-1.805-0.281-4.202-0.598-6.946-0.53l-0.275-0.009v0.011
				c-2.63-0.041-4.936,0.256-6.682,0.528c-2.966,0.466-3.965,2.007-3.965,2.007c-1.62,1.916-1.829,5.509,10.647,10.203v0.204
				c0.093-0.035,0.179-0.068,0.27-0.102c0.092,0.035,0.178,0.068,0.271,0.102l-0.004-0.203
				C114.382,107.533,114.175,103.94,112.554,102.024z"/>
			<path fill="#ED60A1" d="M133.085,29.566c6.489,0,10.149,4.216,10.149,8.957c0,6.614-1.351,10.391-3.472,10.391
				c-2.122,0-7.547-0.895-9.077-9.012c1.589-0.506,2.899-1.191,2.899-1.191s-3.803,0.915-7.423,0.915
				c-3.62,0-5.852-1.726-5.852-4.347S127.469,29.566,133.085,29.566z"/>
			<path fill="#ED60A1" d="M144.367,24.264c-3.983,0-5.819,3.057-6.598,5.066c3.544,1.048,5.753,3.636,6.368,6.678
				c0.118-0.002,0.236-0.004,0.355-0.004c2.995,0,5.126-3.398,5.126-4.367C149.618,30.668,149.641,24.264,144.367,24.264z"/>
			<path fill="#ED60A1" d="M158.02,23.587c-1.45,2.665-2.445,2.483-2.445,2.483s1.593-2.456,1.593-3.969
				c0-1.513,0.066-7.165-3.209-7.165s-6.334,4.391-6.334,6.38c0,1.418,0,2.266,0,2.641c3.313,1.363,3.307,6.172,3.307,7.003
				c0,0.289-0.192,0.794-0.537,1.36c2.834,2.641,5.923,3.689,9.482,3.689c3.592,0,4.815-2.663,4.815-5.049
				C165.305,27.874,160.804,24.571,158.02,23.587z"/>
			<path fill="#382E14" d="M67.73,79.604c0,2.063-1.09,3.738-2.437,3.738c-1.344,0-2.437-1.674-2.437-3.738
				c0-2.065,1.093-3.741,2.437-3.741C66.64,75.864,67.73,77.539,67.73,79.604"/>
			<path fill="#382E14" d="M139.213,80.289c0,2.063-1.09,3.738-2.437,3.738c-1.344,0-2.437-1.674-2.437-3.738
				c0-2.065,1.093-3.741,2.437-3.741C138.124,76.548,139.213,78.224,139.213,80.289"/>
			<path fill="#382E14" d="M58.444,70.542c-0.609-1.583,1.037-3.886,3.064-4.852c2.81-1.339,6.107-0.719,6.107-0.719
				s0.654,1.108,0.103,0.9c-0.697-0.264-3.977-0.413-6.138,0.843C58.203,68.683,59.588,71.377,58.444,70.542z"/>
			<path fill="#382E14" d="M143.834,70.542c0.609-1.583-1.037-3.886-3.064-4.852c-2.81-1.339-6.107-0.719-6.107-0.719
				s-0.654,1.108-0.103,0.9c0.697-0.264,3.977-0.413,6.138,0.843C144.076,68.683,142.69,71.377,143.834,70.542z"/>
		</g>
	</g>
	<g>
		<g>
			<path fill="#FFFFFF" d="M18.438,200.885c-1.813,1.017-3.68,1.531-5.596,1.531c-2.392,0-4.33-0.814-5.808-2.438
				c-1.476-1.626-2.216-3.757-2.216-6.393c0-2.662,0.797-4.882,2.388-6.664c1.593-1.78,3.72-2.67,6.381-2.67
				c1.544,0,3.042,0.311,4.496,0.932v1.324c-1.593-0.77-3.148-1.152-4.666-1.152c-2.214,0-3.992,0.755-5.334,2.264
				c-1.345,1.512-2.016,3.438-2.016,5.782c0,2.465,0.632,4.398,1.894,5.797c1.261,1.402,2.96,2.101,5.1,2.101
				c1.585,0,2.97-0.342,4.164-1.027v-5.793h-4.14v-1.104h5.352V200.885z"/>
			<path fill="#FFFFFF" d="M41.015,202.109l-2.34-5.146c-0.481-1.061-0.964-1.772-1.444-2.135c-0.483-0.364-1.087-0.545-1.814-0.545
				h-2.179v7.827h-1.215v-17.565h4.875c1.551,0,2.77,0.421,3.656,1.256c0.887,0.837,1.329,1.941,1.329,3.315
				c0,1.264-0.363,2.324-1.088,3.171c-0.729,0.848-1.744,1.395-3.053,1.641v0.049c0.696,0.279,1.374,1.123,2.033,2.537l2.61,5.596
				H41.015z M33.238,185.659v7.52h3.024c1.339,0,2.403-0.351,3.191-1.051c0.788-0.704,1.182-1.668,1.182-2.892
				c0-1.118-0.356-1.994-1.066-2.628c-0.711-0.63-1.726-0.949-3.05-0.949H33.238z"/>
			<path fill="#FFFFFF" d="M62.706,202.416c-2.48,0-4.46-0.827-5.934-2.476c-1.474-1.649-2.21-3.793-2.21-6.429
				c0-2.801,0.757-5.042,2.272-6.729c1.515-1.687,3.582-2.531,6.204-2.531c2.368,0,4.284,0.812,5.751,2.431
				c1.466,1.622,2.199,3.746,2.199,6.374c0,2.909-0.753,5.195-2.255,6.861C67.231,201.583,65.223,202.416,62.706,202.416z
				 M62.829,185.354c-2.041,0-3.721,0.738-5.039,2.218c-1.319,1.476-1.979,3.412-1.979,5.804c0,2.419,0.626,4.343,1.874,5.776
				c1.248,1.431,2.916,2.148,4.998,2.148c2.171,0,3.89-0.708,5.157-2.123c1.265-1.417,1.899-3.391,1.899-5.924
				c0-2.482-0.619-4.419-1.857-5.812C66.646,186.05,64.961,185.354,62.829,185.354z"/>
			<path fill="#FFFFFF" d="M91.334,202.416c-2.482,0-4.461-0.827-5.936-2.476c-1.471-1.649-2.209-3.793-2.209-6.429
				c0-2.801,0.757-5.042,2.272-6.729c1.514-1.687,3.582-2.531,6.203-2.531c2.368,0,4.284,0.812,5.751,2.431
				c1.466,1.622,2.199,3.746,2.199,6.374c0,2.909-0.752,5.195-2.255,6.861C95.859,201.583,93.849,202.416,91.334,202.416z
				 M91.457,185.354c-2.042,0-3.722,0.738-5.041,2.218c-1.319,1.476-1.978,3.412-1.978,5.804c0,2.419,0.626,4.343,1.874,5.776
				c1.25,1.431,2.914,2.148,4.998,2.148c2.17,0,3.89-0.708,5.156-2.123c1.265-1.417,1.898-3.391,1.898-5.924
				c0-2.482-0.617-4.419-1.856-5.812C95.271,186.05,93.587,185.354,91.457,185.354z"/>
			<path fill="#FFFFFF" d="M127.956,202.109V189.64c0-0.3,0.046-1.163,0.136-2.584h-0.05c-0.255,0.662-0.465,1.173-0.636,1.531
				l-6.246,13.522h-0.393l-6.27-13.448c-0.205-0.431-0.397-0.985-0.576-1.653h-0.061c0.057,0.784,0.086,1.565,0.086,2.338v12.763
				h-1.212v-17.565h1.127l6.554,14.146c0.04,0.082,0.085,0.192,0.133,0.33c0.049,0.142,0.103,0.281,0.159,0.419
				c0.081,0.211,0.167,0.448,0.258,0.71h0.072l0.136-0.393c0.007-0.032,0.147-0.421,0.414-1.163l6.457-14.049h1.077v17.565H127.956z
				"/>
			<path fill="#FFFFFF" d="M146.063,184.545v1.104h-1.715v15.357h1.715v1.104h-4.643v-1.104h1.715v-15.357h-1.715v-1.104H146.063z"
				/>
			<path fill="#FFFFFF" d="M170.782,202.109l-10.46-14.197c-0.212-0.283-0.4-0.571-0.562-0.856l-0.161-0.245h-0.049
				c0.016,0.214,0.024,0.469,0.024,0.774v14.524h-1.212v-17.565h0.931l10.386,14.074c0.228,0.311,0.475,0.685,0.747,1.127h0.059
				c-0.04-0.573-0.059-1.061-0.059-1.469v-13.732h1.211v17.565H170.782z"/>
			<path fill="#FFFFFF" d="M198.379,200.885c-1.812,1.017-3.677,1.531-5.596,1.531c-2.394,0-4.329-0.812-5.806-2.438
				c-1.478-1.626-2.218-3.757-2.218-6.393c0-2.662,0.797-4.884,2.389-6.664c1.592-1.78,3.719-2.67,6.381-2.67
				c1.543,0,3.042,0.311,4.495,0.932v1.324c-1.593-0.77-3.148-1.152-4.666-1.152c-2.214,0-3.991,0.755-5.335,2.264
				c-1.342,1.512-2.014,3.438-2.014,5.782c0,2.467,0.631,4.398,1.892,5.797c1.262,1.402,2.962,2.101,5.1,2.101
				c1.587,0,2.973-0.34,4.166-1.027v-5.793h-4.141v-1.104h5.352V200.885z"/>
		</g>
		<g>
			<g>
				<path fill="#FFFFFF" d="M54.31,172.342c-2.067,1.965-3.546,3.243-4.437,3.838c-0.892,0.594-1.743,0.891-2.557,0.891
					c-2.041,0-3.004-1.802-2.888-5.407c-1.292,1.849-2.483,3.211-3.575,4.089c-1.092,0.878-2.218,1.318-3.38,1.318
					c-1.137,0-2.102-0.533-2.897-1.598c-0.795-1.065-1.192-2.375-1.192-3.925c0-1.937,0.533-3.784,1.599-5.542
					c1.065-1.756,2.431-3.177,4.097-4.262c1.667-1.086,3.139-1.628,4.418-1.628c1.614,0,2.745,0.741,3.391,2.228l3.961-2.19h1.086
					l-1.709,5.677c-0.88,2.855-1.321,4.813-1.321,5.872c0,1.11,0.394,1.665,1.182,1.665c0.503,0,1.058-0.267,1.665-0.804
					c0.606-0.535,1.458-1.352,2.556-2.451V172.342z M40.126,173.409c1.292,0,2.51-1.101,3.653-3.304
					c1.142-2.202,1.714-4.234,1.714-6.096c0-0.722-0.161-1.289-0.484-1.695c-0.323-0.406-0.755-0.611-1.298-0.611
					c-1.292,0-2.516,1.099-3.672,3.295c-1.156,2.196-1.734,4.218-1.734,6.064c0,0.697,0.172,1.263,0.514,1.695
					C39.16,173.192,39.596,173.409,40.126,173.409z"/>
				<path fill="#FFFFFF" d="M71.731,172.342c-2.984,3.152-5.542,4.729-7.673,4.729c-0.866,0-1.563-0.303-2.093-0.912
					c-0.531-0.606-0.795-1.419-0.795-2.44c0-1.383,0.568-3.495,1.705-6.336c0.606-1.524,0.911-2.493,0.911-2.908
					c0-0.413-0.162-0.619-0.484-0.619c-0.181,0-0.42,0.091-0.717,0.27c-0.272,0.181-0.589,0.434-0.95,0.756
					c-0.323,0.299-0.685,0.659-1.085,1.086c-0.349,0.362-0.723,0.775-1.123,1.24l-1.085,1.259c-0.478,0.581-0.775,1.194-0.892,1.84
					c-0.194,1.099-0.323,2.106-0.387,3.024c-0.039,0.684-0.058,1.609-0.058,2.771l-4.283,1.006
					c-0.142-1.743-0.213-3.043-0.213-3.893c0-2.08,0.242-4.051,0.726-5.91c0.484-1.861,1.262-3.954,2.335-6.279l4.728-0.91
					c-0.995,2.672-1.648,4.78-1.957,6.317c2.117-2.364,3.797-4.003,5.042-4.912c1.244-0.912,2.351-1.367,3.317-1.367
					c0.658,0,1.207,0.248,1.644,0.745c0.439,0.497,0.658,1.118,0.658,1.868c0,1.238-0.556,3.278-1.665,6.121
					c-0.762,1.95-1.143,3.217-1.143,3.801c0,0.777,0.317,1.164,0.952,1.164c0.945,0,2.474-1.246,4.585-3.739V172.342z"/>
			</g>
			<path fill="#FFFFFF" d="M36.823,146.634c-1.627-0.719-3.692-1.084-6.144-1.084c-2.428,0-4.932,0.395-7.443,1.172
				c-2.529,0.781-4.701,1.896-6.458,3.312c-2.382,1.907-3.59,3.876-3.59,5.854c0,1.337,0.555,2.527,1.652,3.539
				c1.046,0.962,2.442,1.659,4.155,2.072l7.871,1.79c2.175,0.684,3.278,1.592,3.278,2.691c0,0.602-0.256,1.327-0.77,2.164
				c-1.303,2.236-3.469,3.992-6.439,5.22c-3.025,1.251-6.146,1.882-9.28,1.882c-1.352,0-2.626-0.12-3.788-0.356
				c-0.932-0.916-1.606-2.042-2.006-3.348c-0.095-0.303-0.316-1.543-0.828-5.712c-0.266-2.634-1.473-3.188-2.438-3.188
				c-1.602,0-2.926,0.901-3.929,2.672C0.223,166.065,0,166.998,0,168.089c0,1.082,0.356,2.293,1.058,3.605
				c0.693,1.289,1.469,2.287,2.308,2.965c1.277,1.027,3.189,1.756,5.688,2.164c1.896,1.501,3.476,2.23,4.827,2.23
				c1.343,0,1.544-0.63,1.544-1.006c0-0.368-0.248-0.668-0.635-0.764c-0.035-0.008-0.071-0.017-0.104-0.025
				c4.394-0.048,8.277-0.804,11.544-2.244c4.13-1.771,6.735-4.388,7.743-7.788c0.224-0.773,0.338-1.51,0.338-2.186
				c0-1.769-0.788-3.146-2.343-4.097c-1.125-0.737-2.751-1.293-4.968-1.699l-5.28-0.983c-3.106-0.733-4.68-1.817-4.68-3.224
				c0-0.956,0.66-2.052,1.961-3.258c1.36-1.26,3.077-2.211,5.101-2.826c2.059-0.622,4.145-0.938,6.197-0.938
				c3.416,0,5.578,0.752,6.42,2.237c0.28,0.564,0.423,1.102,0.423,1.601c0,0.94-0.434,1.61-1.367,2.105
				c-0.221,0.099-0.687,0.22-1.66,0.253c-0.666,0.022-1.907,0.064-1.907,0.962c0,0.501,0.312,1.094,1.792,1.094
				c0.868,0,1.901-0.24,3.069-0.714c2.04-0.802,3.118-2.291,3.118-4.306C40.187,149.217,39.058,147.669,36.823,146.634z
				 M5.135,172.617c-1.519-1.548-2.258-3.353-2.258-5.522c0-0.628,0.088-1.131,0.26-1.501c0.227-0.49,0.378-0.605,0.407-0.624
				c0.026-0.017,0.054-0.032,0.079-0.044c0.092,0.285,0.244,0.911,0.437,2.256c0.35,2.429,1.037,4.52,2.05,6.245
				C5.746,173.181,5.421,172.913,5.135,172.617z"/>
			<path fill="#FFFFFF" d="M123.08,145.42c-0.633,0-1.873,0.625-6.284,5.264c-4.672,4.921-8.257,8.537-10.659,10.757
				c-1.205-0.011-2.69-0.125-4.412-0.333l-0.063-0.004c-1.219,0-1.971,0.71-2.122,1.999c-0.045,0.226,0.006,0.444,0.141,0.616
				c0.262,0.335,0.737,0.38,1.121,0.38c0.456,0,1.072-0.076,1.872-0.226c0.374-0.062,0.766-0.116,1.173-0.161
				c-4.392,4.018-7.641,6.819-9.667,8.333c-4.888,3.678-8.783,5.543-11.575,5.543c-2.778,0-4.073-1.266-4.073-3.987
				c0-1.912,0.787-4.65,2.337-8.137c1.547-3.475,3.836-6.443,6.806-8.827c2.94-2.357,5.475-3.553,7.536-3.553
				c0.897,0,1.522,0.267,1.913,0.813c0.424,0.598,0.64,1.409,0.64,2.416c0,1.018-0.453,2.242-1.356,3.649l-1.469,2.401v0.147
				c0,0.302,0.231,0.607,0.671,0.607c0.152,0,0.298-0.022,0.438-0.067l0.077-0.031c0.983-0.507,1.897-1.633,2.799-3.437
				c0.878-1.751,1.321-3.377,1.321-4.829c0-1.644-0.815-3.602-4.698-3.602c-2.882,0-6.162,1.318-9.75,3.915
				c-3.559,2.577-6.404,5.733-8.455,9.38c-1.557,2.765-2.345,5.434-2.345,7.931c0,4.371,2.343,6.787,6.959,7.183
				c0.22,0.029,0.438,0.043,0.648,0.043c3.348,0,7.807-2.059,13.632-6.298c3.747-2.747,7.531-5.977,11.25-9.602l3.996-0.098
				c-1.941,4.094-2.925,7.554-2.925,10.29c0,1.612,0.456,2.6,1.353,2.937l0.082,0.022c0.316,0.062,0.729,0.094,1.261,0.094
				c0.576,0,1.243-0.181,2.035-0.554c0.859-0.404,1.386-0.943,1.568-1.599l0.02-0.069v-0.071c0-0.505-0.347-0.735-0.672-0.735
				c-0.226,0-0.46,0.103-1.174,0.688c-0.498,0.407-0.745,0.451-0.829,0.451c-0.191,0-0.698,0-0.698-1.416
				c0-1.731,1.254-5.079,3.729-9.955c1.912-0.134,3.379-0.281,4.365-0.438c1.313-0.208,1.981-0.424,1.981-1.034
				c0-0.726-0.967-0.735-2.012-0.735c-0.013,0-0.027,0-0.039,0l-3.187,0.067c0.645-1.206,1.395-2.678,2.236-4.393
				c1.021-2.084,1.814-3.518,2.355-4.264c0.526-0.722,1.093-1.299,1.697-1.719c0.422-0.307,0.754-0.991,1.043-2.153
				c0.266-1.062,0.395-1.835,0.395-2.361C124.066,145.509,123.311,145.42,123.08,145.42z M116.631,154.398
				c-1.794,2.893-2.991,4.914-3.629,6.125c-0.687-0.002-1.272-0.017-1.743-0.038h-1.12L116.631,154.398z"/>
			<path fill="#FFFFFF" d="M136.556,172.342c-2.984,3.152-5.542,4.729-7.673,4.729c-0.866,0-1.563-0.303-2.093-0.912
				c-0.531-0.606-0.795-1.419-0.795-2.44c0-1.383,0.568-3.495,1.705-6.336c0.606-1.524,0.911-2.493,0.911-2.908
				c0-0.413-0.162-0.619-0.484-0.619c-0.181,0-0.42,0.091-0.717,0.27c-0.272,0.181-0.589,0.434-0.95,0.756
				c-0.323,0.299-0.685,0.659-1.085,1.086c-0.348,0.362-0.723,0.775-1.123,1.24l-1.085,1.259c-0.478,0.581-0.775,1.194-0.892,1.84
				c-0.194,1.099-0.323,2.106-0.387,3.024c-0.039,0.684-0.058,1.609-0.058,2.771l-4.283,1.006c-0.142-1.743-0.213-3.043-0.213-3.893
				c0-2.08,0.242-4.051,0.726-5.91c0.484-1.861,1.262-3.954,2.335-6.279l4.728-0.91c-0.995,2.672-1.648,4.78-1.957,6.317
				c2.117-2.364,3.797-4.003,5.042-4.912c1.244-0.912,2.351-1.367,3.317-1.367c0.658,0,1.206,0.248,1.644,0.745
				c0.439,0.497,0.658,1.118,0.658,1.868c0,1.238-0.556,3.278-1.665,6.121c-0.762,1.95-1.143,3.217-1.143,3.801
				c0,0.777,0.317,1.164,0.952,1.164c0.945,0,2.474-1.246,4.585-3.739V172.342z"/>
			<path fill="#FFFFFF" d="M146.114,172.342c-1.628,1.615-3.035,2.807-4.224,3.575c-1.189,0.769-2.319,1.154-3.391,1.154
				c-1.111,0-2.012-0.467-2.702-1.404c-0.692-0.937-1.037-2.167-1.037-3.691c0-1.343,0.331-3.118,0.994-5.323l0.822-2.933
				l-1.487,0.078l0.62-3.043l1.842-0.078l1.819-6.045l5.177-1.062l-2.002,6.74l2.736-0.156l-0.64,2.984l-3.006,0.234l-1.291,4.342
				c-0.448,1.508-0.673,2.708-0.673,3.601c0,0.608,0.152,1.101,0.456,1.484c0.304,0.381,0.695,0.571,1.174,0.571
				c0.66,0,1.314-0.208,1.96-0.63c0.646-0.419,1.597-1.295,2.852-2.626V172.342z"/>
			<path fill="#FFFFFF" d="M161.908,172.342c-0.659,0.583-1.298,0.992-1.918,1.232c-0.62,0.238-1.112,0.358-1.473,0.358
				c-0.93,0-1.854-0.362-2.771-1.084c-1.86,2.815-3.991,4.224-6.395,4.224c-1.498,0-2.712-0.562-3.643-1.686
				c-0.93-1.122-1.395-2.615-1.395-4.476c0-2.944,1.046-5.472,3.139-7.584c2.092-2.114,4.592-3.169,7.498-3.169
				c1.098,0,1.902,0.12,2.413,0.358c0.511,0.24,0.823,0.52,0.94,0.842c0.116,0.324,0.174,0.731,0.174,1.221
				c0,2.417-0.659,5.382-1.976,8.894c0.659,0.608,1.35,0.912,2.073,0.912c0.865,0,1.977-0.756,3.333-2.268V172.342z
				 M155.513,161.511c-0.194-0.078-0.472-0.116-0.833-0.116c-1.679,0-2.994,0.878-3.944,2.634c-0.95,1.758-1.424,3.811-1.424,6.163
				c0,1.306,0.207,2.318,0.62,3.043c0.414,0.722,0.989,1.084,1.726,1.084c0.917,0,1.911-0.846,2.984-2.537
				c-1.215-1.524-1.821-3.165-1.821-4.923C152.82,164.793,153.718,163.01,155.513,161.511z"/>
			<path fill="#FFFFFF" d="M178.26,172.342c-2.984,3.152-5.542,4.729-7.673,4.729c-0.866,0-1.563-0.303-2.093-0.912
				c-0.531-0.606-0.795-1.419-0.795-2.44c0-1.383,0.568-3.495,1.705-6.336c0.606-1.524,0.911-2.493,0.911-2.908
				c0-0.413-0.162-0.619-0.484-0.619c-0.181,0-0.42,0.091-0.717,0.27c-0.272,0.181-0.589,0.434-0.95,0.756
				c-0.323,0.299-0.685,0.659-1.085,1.086c-0.349,0.362-0.723,0.775-1.123,1.24l-1.085,1.259c-0.478,0.581-0.775,1.194-0.892,1.84
				c-0.194,1.099-0.323,2.106-0.387,3.024c-0.039,0.684-0.058,1.609-0.058,2.771l-4.283,1.006c-0.142-1.743-0.213-3.043-0.213-3.893
				c0-2.08,0.242-4.051,0.726-5.91c0.484-1.861,1.262-3.954,2.335-6.279l4.728-0.91c-0.995,2.672-1.648,4.78-1.957,6.317
				c2.117-2.364,3.797-4.003,5.042-4.912c1.244-0.912,2.351-1.367,3.317-1.367c0.658,0,1.207,0.248,1.644,0.745
				c0.439,0.497,0.658,1.118,0.658,1.868c0,1.238-0.556,3.278-1.665,6.121c-0.762,1.95-1.143,3.217-1.143,3.801
				c0,0.777,0.317,1.164,0.952,1.164c0.945,0,2.474-1.246,4.585-3.739V172.342z"/>
			<path fill="#FFFFFF" d="M186.186,172.342c-3.023,3.179-5.283,4.767-6.782,4.767c-0.826,0-1.523-0.423-2.092-1.268
				c-0.568-0.846-0.853-1.91-0.853-3.188c0-2.752,0.93-6.563,2.79-11.433l4.922-1.027h0.233l-1.937,6.066
				c-0.801,2.506-1.202,4.295-1.202,5.367c0,0.425,0.094,0.773,0.281,1.036c0.187,0.265,0.423,0.398,0.708,0.398
				c0.504,0,1.011-0.183,1.521-0.552c0.509-0.368,1.314-1.166,2.412-2.394V172.342z M185.799,153.417
				c0,3.099-1.143,4.651-3.429,4.651c-1.112,0-2.061-0.337-2.849-1.009c0.748-1.136,1.331-2.416,1.743-3.836
				c1.021,0.633,1.841,0.949,2.461,0.949C184.423,154.172,185.115,153.92,185.799,153.417z"/>
			<path fill="#FFFFFF" d="M202,172.342c-0.659,0.583-1.298,0.992-1.918,1.232c-0.62,0.238-1.112,0.358-1.473,0.358
				c-0.93,0-1.854-0.362-2.771-1.084c-1.86,2.815-3.991,4.224-6.395,4.224c-1.498,0-2.712-0.562-3.643-1.686
				c-0.93-1.122-1.395-2.615-1.395-4.476c0-2.944,1.046-5.472,3.139-7.584c2.092-2.114,4.592-3.169,7.498-3.169
				c1.098,0,1.902,0.12,2.413,0.358c0.511,0.24,0.823,0.52,0.94,0.842c0.116,0.324,0.174,0.731,0.174,1.221
				c0,2.417-0.659,5.382-1.976,8.894c0.659,0.608,1.35,0.912,2.073,0.912c0.865,0,1.977-0.756,3.333-2.268V172.342z
				 M195.605,161.511c-0.194-0.078-0.472-0.116-0.833-0.116c-1.679,0-2.994,0.878-3.944,2.634c-0.95,1.758-1.424,3.811-1.424,6.163
				c0,1.306,0.207,2.318,0.62,3.043c0.414,0.722,0.989,1.084,1.726,1.084c0.917,0,1.911-0.846,2.984-2.537
				c-1.215-1.524-1.821-3.165-1.821-4.923C192.912,164.793,193.811,163.01,195.605,161.511z"/>
		</g>
	</g>
</g>
</svg>
