<?xml version="1.0" encoding="utf-8"?>
<!-- Generator: Adobe Illustrator 17.0.0, SVG Export Plug-In . SVG Version: 6.00 Build 0)  -->
<svg version="1.1" id="Layer_1" xmlns="http://www.w3.org/2000/svg" xmlns:xlink="http://www.w3.org/1999/xlink" x="0px" y="0px"
	 width="41.587px" height="47px" viewBox="0 0 41.587 47" enable-background="new 0 0 41.587 47" xml:space="preserve">
<g>
	<path fill="#FFFFFF" d="M4.497,15.541c-0.474,0.17-0.804,0.629-0.753,1.152l0.375,3.897c0.059,0.613,0.606,1.065,1.217,1.014l0,0
		c0.365,1.189,0.833,2.312,1.404,3.345c0,0,0,0,0-0.001c0,0,0,0,0,0c-0.2,1.356-0.825,4.46-2.55,6.472c0,0,3.192-0.615,4.995-3.162
		c0,0,0,0,0-0.001c0.021-0.029,0.021-0.029,0,0.001c2.188,2.231,4.977,3.574,8.012,3.574c2.697,0,5.197-1.064,7.257-2.864
		c0.465,0.623,1.293,1.205,2.124,1.676c-0.828,0.674-2.086,2.412-2.086,2.412l-13.503-0.055C4.945,33.001,0,37.947,0,43.989v2.107
		h28.426h0v0.001C29.626,46.67,30.962,47,32.377,47c5.079,0,9.209-4.131,9.209-9.209c0-2.467-0.98-4.707-2.565-6.362l0.035-0.063
		l-0.193-0.107l0,0l0,0l-0.002-0.001c-1.665-1.654-3.957-2.678-6.484-2.678c-1.681,0-3.254,0.46-4.612,1.25
		c-0.489-1.18-0.857-2.559-1.056-3.388c1.175-1.644,2.426-4.945,2.426-4.945c0.618,0.059,1.172-0.399,1.232-1.016l0.375-3.897
		c0.054-0.559-0.323-1.045-0.85-1.181C29.673,6.866,24.07,0,17.197,0C10.287,0,4.659,6.94,4.497,15.541L4.497,15.541z M6.373,12.756
		L6.373,12.756 M6.644,12.405c0,0,2.162-2.808,5.824-2.808c3.989,0,6.097,3.161,6.097,3.161s3.161,3.988,8.654,3.988
		c0,0,0.856-0.019,0.855,0l-0.013,0.245c-0.335,7.394-5.065,13.036-10.864,13.036c-6.015,0-10.908-6.33-10.908-14.11
		C6.288,14.703,6.421,13.53,6.644,12.405L6.644,12.405z M28.415,31.547c0.358,0.154,0.595,0.243,0.595,0.243
		c-0.129-0.094-0.252-0.227-0.373-0.378c1.099-0.648,2.375-1.026,3.741-1.026c1.633,0,3.139,0.538,4.365,1.437l-4.488,8.136
		L29.612,36.5l-1.479,1.038l4.367,5.715L38.1,33.1c1.05,1.278,1.681,2.912,1.681,4.69c0,3.382-2.192,6.21-5.296,7.091
		c0,0-0.918,0.313-2.108,0.313c-4.082,0-7.403-3.321-7.403-7.403c0-1.632,0.536-3.136,1.433-4.359c0,0,0,0,0,0
		C26.952,32.685,27.633,32.046,28.415,31.547L28.415,31.547z"/>
</g>
</svg>
