<svg version="1.1" id="instagram-icon" xmlns="http://www.w3.org/2000/svg" xmlns:xlink="http://www.w3.org/1999/xlink" x="0px" y="0px"
	 width="42px" height="42px" viewBox="0 0 42 42" enable-background="new 0 0 42 42" xml:space="preserve">
<g>
	<path fill="#FFFFFF" d="M25.539,12.27h-9.077c-2.311,0-4.191,1.88-4.191,4.191v9.078c0,2.311,1.88,4.191,4.191,4.191h9.077
		c2.311,0,4.191-1.88,4.191-4.191v-9.078C29.73,14.15,27.85,12.27,25.539,12.27z M21,26.396c-2.975,0-5.396-2.42-5.396-5.396
		c0-2.975,2.42-5.395,5.396-5.395c2.975,0,5.395,2.421,5.395,5.395C26.395,23.975,23.975,26.396,21,26.396z M26.627,16.593
		c-0.716,0-1.297-0.581-1.297-1.297c0-0.716,0.581-1.297,1.297-1.297c0.716,0,1.297,0.581,1.297,1.297
		C27.924,16.012,27.343,16.593,26.627,16.593z"/>
	<path fill="#FFFFFF" d="M21,17.411c-1.979,0-3.589,1.61-3.589,3.589c0,1.979,1.61,3.589,3.589,3.589
		c1.979,0,3.589-1.61,3.589-3.589C24.589,19.021,22.979,17.411,21,17.411z"/>
	<path fill="#FFFFFF" d="M21,0.187C9.505,0.187,0.187,9.505,0.187,21S9.505,41.813,21,41.813c11.495,0,20.813-9.318,20.813-20.813
		S32.495,0.187,21,0.187z M31.536,25.539c0,3.307-2.691,5.997-5.998,5.997h-9.077c-3.307,0-5.997-2.69-5.997-5.997v-9.078
		c0-3.307,2.691-5.997,5.997-5.997h9.077c3.307,0,5.998,2.69,5.998,5.997V25.539z"/>
</g>
</svg>
