<svg version="1.1" id="logo" xmlns="http://www.w3.org/2000/svg" xmlns:xlink="http://www.w3.org/1999/xlink" x="0px" y="0px"
	 width="264px" height="131.471px" viewBox="0 0 264 131.471" enable-background="new 0 0 264 131.471" xml:space="preserve">
<g>
	<path fill="#6EDBD5" d="M211.244,131.272c-19.605-26.71-54.753-32.739-109.577-23.109C49.859,117.264,14.77,119.918,0,104.264
		c8.523,14.245,23.162,22.807,43.613,22.807c16.537,0,34.39-3.475,52.501-6.511c19.721-3.304,37.869-6.437,54.484-5.743
		c22.603,0.945,42.473,7.496,60.57,16.65L211.244,131.272z"/>
	<path fill="#4158AA" d="M53.655,116.219c-8.414-0.536-15.605-2.415-21.981-5.746l-0.095-0.047
		c-2.771-1.295-5.779-4.202-8.417-7.371c5.826,3.707,13.571,5.835,23.428,6.462c14.708,0.936,34.288-1.263,65.474-7.352
		c15.088-2.946,29.41-4.015,42.566-3.177l0.127,0.008c21.264,1.353,47.522,16.013,56.38,32.475
		c-12.012-17.938-41.591-25.949-54.254-26.755c-0.829-0.053-1.656-0.093-2.476-0.118c-14.634-0.456-30.478,1.807-48.316,5.133
		c-2.494,0.465-4.985,0.942-7.466,1.42C82.671,114.213,67.602,117.107,53.655,116.219"/>
	<path fill="#6EDBD5" d="M248.965,26.436c-4.1-1.776-3.584-5.288-3.584-5.288c0.554-2.241-0.068-2.221-0.068-2.221l-12.739-4.52
		c-4.723-1.757-4.824-5.09-4.824-5.09C227.188,6.158,231.046,0,231.046,0S187.03,30.353,190.6,79.506
		c0.813-17.751,14.932-30.469,21.613-33.637c-2.911,1.901-5.745,5.98-2.841,9.211c1.872,2.082,5.877,1.709,7.265,4.196
		c0.855,1.53-0.001,3.522,0.756,5.095c0.715,1.484,2.216,1.088,3.186,2.07c1.904,1.922-2.272,7.267-3.156,7.295
		c-0.811,0.026-1.877,0.056-3.543,0.109c-1.666,0.053-3.447-0.064-3.382,2.085c0.108,3.564,7.318,9.661,7.63,19.94
		c0.472,15.493-8.576,15.632-8.116,30.763c0.082,2.696,1.091,4.807,1.104,4.833h-0.002h-0.002c-0.027-0.006-0.076-0.053-0.148-0.14
		v-0.001l0.08,0.131l0.093,0.014c-0.38-12.462,33.345-34.645,32.712-55.443c-0.59-19.377-10.891-23.356-11.18-32.875
		c5.48-3.986,11.278,2.503,16.846,1.373c0.933-0.029,1.837-1.012,2.899-1.911c-2.116,0.11-5.326-0.076-6.449-2.301
		c2.837,1.02,6.731,1.68,9.357-0.293c8.933-6.737,8.678-10.409,8.678-10.409C260.161,31.323,248.965,26.436,248.965,26.436"/>
	<path fill="#8A898C" d="M15.862,72.009c-0.037-0.856-0.221-1.601-0.548-2.234s-0.773-1.164-1.335-1.594
		c-0.562-0.428-1.232-0.749-2.01-0.963c-0.777-0.214-1.625-0.321-2.543-0.321c-0.562,0-1.166,0.066-1.812,0.196
		c-0.647,0.13-1.246,0.359-1.799,0.684c-0.553,0.326-1.008,0.764-1.364,1.313c-0.356,0.55-0.534,1.235-0.534,2.054
		c0,0.801,0.197,1.453,0.59,1.956c0.394,0.503,0.909,0.908,1.546,1.215c0.638,0.307,1.368,0.555,2.192,0.741
		c0.825,0.186,1.658,0.363,2.502,0.531c0.861,0.167,1.7,0.368,2.515,0.601c0.815,0.233,1.546,0.549,2.192,0.95
		c0.647,0.4,1.166,0.922,1.56,1.565c0.393,0.643,0.59,1.449,0.59,2.418c0,1.043-0.225,1.918-0.674,2.627
		c-0.45,0.707-1.016,1.285-1.701,1.732c-0.683,0.447-1.443,0.769-2.276,0.964c-0.834,0.196-1.635,0.293-2.403,0.293
		c-1.181,0-2.285-0.126-3.316-0.378c-1.031-0.251-1.93-0.661-2.698-1.23c-0.768-0.568-1.372-1.299-1.812-2.193
		c-0.441-0.895-0.651-1.984-0.632-3.269h1.237c-0.056,1.1,0.103,2.025,0.477,2.781C4.18,83.2,4.7,83.819,5.365,84.304
		c0.666,0.485,1.448,0.834,2.347,1.048c0.9,0.214,1.845,0.321,2.839,0.321c0.599,0,1.241-0.074,1.924-0.224
		c0.684-0.149,1.312-0.4,1.884-0.754c0.571-0.354,1.049-0.82,1.432-1.397c0.385-0.577,0.576-1.303,0.576-2.179
		c0-0.838-0.197-1.523-0.59-2.054c-0.393-0.531-0.913-0.959-1.559-1.285c-0.647-0.326-1.377-0.587-2.193-0.782
		c-0.815-0.196-1.653-0.378-2.515-0.545c-0.843-0.167-1.677-0.363-2.501-0.587c-0.825-0.224-1.555-0.526-2.193-0.908
		c-0.637-0.382-1.152-0.876-1.545-1.481c-0.394-0.604-0.591-1.382-0.591-2.332c0-0.951,0.202-1.765,0.604-2.446
		c0.403-0.679,0.928-1.23,1.574-1.648c0.646-0.419,1.372-0.727,2.178-0.923c0.805-0.196,1.602-0.293,2.388-0.293
		c1.05,0,2.028,0.117,2.937,0.35c0.909,0.233,1.705,0.596,2.389,1.089c0.683,0.494,1.232,1.132,1.644,1.914
		c0.413,0.783,0.647,1.724,0.703,2.822H15.862z"/>
	<path fill="#8A898C" d="M26.991,66.309h1.349l7.926,19.951h-1.321l-2.53-6.398h-9.611l-2.558,6.398h-1.321L26.991,66.309z
		 M32.021,78.799l-4.3-11.289h-0.056l-4.468,11.289H32.021z"/>
	<polygon fill="#8A898C" points="38.26,66.309 39.806,66.309 52.481,84.61 52.537,84.61 52.537,66.309 53.774,66.309 53.774,86.259 
		52.312,86.259 39.554,67.818 39.497,67.818 39.497,86.259 38.26,86.259 	"/>
	<path fill="#8A898C" d="M72.211,66.309h1.349l7.926,19.951h-1.321l-2.53-6.398h-9.611l-2.558,6.398h-1.321L72.211,66.309z
		 M77.242,78.799l-4.3-11.289h-0.056l-4.468,11.289H77.242z"/>
	<polygon fill="#8A898C" points="83.481,66.309 85.026,66.309 97.701,84.61 97.757,84.61 97.757,66.309 98.994,66.309 
		98.994,86.259 97.532,86.259 84.774,67.818 84.717,67.818 84.717,86.259 83.481,86.259 	"/>
	<polygon fill="#8A898C" points="100.934,67.371 100.934,66.31 116.307,66.31 116.307,67.371 109.225,67.371 109.225,86.26 
		107.988,86.26 107.988,67.371 	"/>
	<path fill="#8A898C" d="M135.25,76.284c0,1.453-0.217,2.818-0.647,4.093c-0.432,1.276-1.054,2.384-1.869,3.325
		c-0.816,0.941-1.813,1.682-2.994,2.222c-1.18,0.54-2.519,0.81-4.018,0.81c-1.499,0-2.843-0.27-4.033-0.81
		c-1.19-0.54-2.192-1.281-3.007-2.222c-0.814-0.94-1.438-2.048-1.868-3.325c-0.432-1.275-0.647-2.64-0.647-4.093
		c0-1.453,0.215-2.817,0.647-4.093c0.431-1.275,1.054-2.384,1.868-3.325c0.816-0.941,1.817-1.681,3.007-2.222
		c1.19-0.54,2.534-0.81,4.033-0.81c1.499,0,2.839,0.27,4.018,0.81c1.181,0.541,2.178,1.281,2.994,2.222
		c0.816,0.94,1.438,2.049,1.869,3.325C135.033,73.467,135.25,74.831,135.25,76.284 M117.403,76.284c0,1.285,0.187,2.497,0.562,3.633
		c0.376,1.136,0.919,2.128,1.63,2.975c0.713,0.849,1.583,1.523,2.614,2.026c1.03,0.502,2.201,0.754,3.513,0.754
		s2.478-0.252,3.499-0.754c1.02-0.503,1.887-1.178,2.6-2.026c0.712-0.847,1.255-1.839,1.631-2.975
		c0.373-1.136,0.562-2.348,0.562-3.633c0-1.285-0.188-2.496-0.562-3.633c-0.377-1.136-0.92-2.127-1.631-2.975
		c-0.713-0.848-1.579-1.523-2.6-2.026c-1.022-0.502-2.188-0.754-3.499-0.754s-2.483,0.252-3.513,0.754
		c-1.031,0.503-1.902,1.179-2.614,2.026c-0.712,0.848-1.255,1.839-1.63,2.975C117.59,73.789,117.403,75,117.403,76.284"/>
	<polygon fill="#8A898C" points="138.454,66.309 140,66.309 152.674,84.61 152.73,84.61 152.73,66.309 153.967,66.309 
		153.967,86.259 152.505,86.259 139.747,67.818 139.691,67.818 139.691,86.259 138.454,86.259 	"/>
	<rect x="158.07" y="66.309" fill="#8A898C" width="1.237" height="19.95"/>
	<path fill="#8A898C" d="M181.595,76.284c0,1.453-0.217,2.818-0.647,4.093c-0.432,1.276-1.054,2.384-1.869,3.325
		c-0.816,0.941-1.813,1.682-2.994,2.222c-1.18,0.54-2.519,0.81-4.018,0.81s-2.843-0.27-4.033-0.81
		c-1.19-0.54-2.192-1.281-3.007-2.222c-0.814-0.94-1.438-2.048-1.868-3.325c-0.432-1.275-0.647-2.64-0.647-4.093
		c0-1.453,0.215-2.817,0.647-4.093c0.431-1.275,1.054-2.384,1.868-3.325c0.816-0.941,1.817-1.681,3.007-2.222
		c1.19-0.54,2.534-0.81,4.033-0.81s2.839,0.27,4.018,0.81c1.181,0.541,2.178,1.281,2.994,2.222c0.816,0.94,1.438,2.049,1.869,3.325
		C181.377,73.467,181.595,74.831,181.595,76.284 M163.747,76.284c0,1.285,0.187,2.497,0.562,3.633
		c0.376,1.136,0.919,2.128,1.63,2.975c0.713,0.849,1.583,1.523,2.614,2.026c1.03,0.502,2.201,0.754,3.513,0.754
		c1.312,0,2.478-0.252,3.498-0.754c1.022-0.503,1.888-1.178,2.601-2.026c0.712-0.847,1.255-1.839,1.631-2.975
		c0.373-1.136,0.562-2.348,0.562-3.633c0-1.285-0.188-2.496-0.562-3.633c-0.377-1.136-0.92-2.127-1.631-2.975
		c-0.713-0.848-1.579-1.523-2.601-2.026c-1.02-0.502-2.187-0.754-3.498-0.754c-1.312,0-2.483,0.252-3.513,0.754
		c-1.031,0.503-1.902,1.179-2.614,2.026c-0.712,0.848-1.255,1.839-1.63,2.975C163.935,73.789,163.747,75,163.747,76.284"/>
	<polygon fill="#77777A" points="9.853,50.224 3.057,50.224 3.057,44.999 1.745,44.999 1.745,57.113 3.057,57.113 3.057,51.436 
		9.853,51.436 9.853,57.113 11.167,57.113 11.167,44.999 9.853,44.999 	"/>
	<path fill="#77777A" d="M22.829,46.578c-0.496-0.572-1.111-1.03-1.829-1.359c-0.718-0.328-1.54-0.494-2.444-0.494
		s-1.729,0.166-2.453,0.494c-0.722,0.329-1.34,0.785-1.837,1.359c-0.494,0.57-0.877,1.249-1.136,2.02
		c-0.258,0.762-0.39,1.588-0.39,2.458c0,0.869,0.132,1.696,0.389,2.458c0.26,0.771,0.643,1.45,1.137,2.019
		c0.497,0.574,1.115,1.031,1.837,1.359c0.724,0.329,1.549,0.495,2.453,0.495c0.905,0,1.727-0.166,2.445-0.495
		c0.717-0.329,1.332-0.785,1.828-1.359c0.493-0.567,0.875-1.246,1.137-2.019c0.258-0.766,0.389-1.594,0.389-2.458
		c0-0.865-0.131-1.692-0.39-2.458C23.704,47.825,23.322,47.146,22.829,46.578 M16.659,55.769c-0.553-0.271-1.029-0.639-1.41-1.092
		c-0.383-0.457-0.681-1.001-0.885-1.62c-0.205-0.62-0.31-1.294-0.31-2.001s0.105-1.381,0.31-2.002
		c0.204-0.618,0.502-1.163,0.885-1.619c0.381-0.454,0.856-0.821,1.41-1.092c0.551-0.269,1.19-0.406,1.897-0.406
		c0.707,0,1.342,0.136,1.886,0.405c0.549,0.27,1.023,0.639,1.404,1.093c0.383,0.456,0.681,1.001,0.885,1.619
		c0.205,0.621,0.309,1.295,0.309,2.002s-0.104,1.381-0.309,2.001c-0.204,0.619-0.502,1.163-0.885,1.62
		c-0.382,0.455-0.855,0.823-1.404,1.093C19.354,56.306,17.762,56.307,16.659,55.769"/>
	<path fill="#77777A" d="M33.71,51.293c-0.395-0.244-0.847-0.44-1.342-0.581c-0.482-0.138-0.979-0.256-1.475-0.353
		c-0.484-0.097-0.963-0.199-1.437-0.305c-0.451-0.102-0.855-0.239-1.2-0.405c-0.324-0.157-0.589-0.364-0.786-0.616
		c-0.184-0.236-0.276-0.553-0.276-0.945c0-0.414,0.087-0.757,0.259-1.024c0.18-0.276,0.41-0.498,0.688-0.662
		c0.288-0.171,0.606-0.291,0.945-0.36c0.943-0.189,1.7-0.119,2.376,0.068c0.408,0.112,0.765,0.283,1.057,0.506
		c0.288,0.221,0.519,0.496,0.687,0.82c0.169,0.325,0.263,0.717,0.282,1.165l0.012,0.286h1.318L34.8,48.574
		c-0.035-0.677-0.183-1.266-0.44-1.754c-0.26-0.491-0.61-0.898-1.039-1.208c-0.423-0.306-0.922-0.533-1.48-0.676
		c-0.961-0.245-2.093-0.306-3.217-0.033c-0.496,0.12-0.951,0.313-1.349,0.571c-0.412,0.267-0.749,0.62-1.004,1.051
		c-0.259,0.437-0.391,0.963-0.391,1.565c0,0.604,0.132,1.113,0.389,1.509c0.252,0.387,0.585,0.705,0.989,0.948
		c0.39,0.234,0.842,0.421,1.341,0.557c0.472,0.128,0.964,0.244,1.466,0.344c0.493,0.096,0.973,0.2,1.439,0.311
		c0.447,0.108,0.851,0.252,1.2,0.428c0.328,0.166,0.596,0.386,0.794,0.653c0.187,0.252,0.282,0.591,0.282,1.006
		c0,0.443-0.095,0.81-0.282,1.092c-0.198,0.296-0.446,0.538-0.736,0.718c-0.299,0.185-0.632,0.318-0.993,0.397
		c-1.003,0.221-1.827,0.133-2.614-0.055c-0.477-0.113-0.897-0.301-1.247-0.555c-0.343-0.249-0.615-0.573-0.809-0.963
		c-0.192-0.386-0.274-0.876-0.243-1.456l0.017-0.315h-1.326l-0.004,0.296c-0.011,0.785,0.122,1.466,0.395,2.022
		c0.275,0.557,0.657,1.019,1.137,1.375c0.474,0.351,1.034,0.606,1.664,0.759c0.616,0.15,1.284,0.227,1.986,0.227
		c0.465,0,0.955-0.06,1.455-0.178c0.512-0.12,0.986-0.32,1.41-0.597c0.429-0.28,0.787-0.646,1.07-1.09
		c0.289-0.456,0.435-1.019,0.435-1.677c0-0.612-0.13-1.134-0.385-1.551C34.457,51.886,34.121,51.548,33.71,51.293"/>
	<path fill="#77777A" d="M44.377,45.623c-0.373-0.253-0.783-0.423-1.215-0.506c-0.412-0.078-0.794-0.119-1.135-0.119h-5.231v12.114
		h1.313v-5.127h3.659c1.237,0,2.209-0.302,2.889-0.897c0.693-0.604,1.044-1.468,1.044-2.564c0-0.735-0.127-1.344-0.376-1.811
		C45.075,46.249,44.756,45.882,44.377,45.623 M41.88,50.772h-3.772v-4.56h3.869c0.533,0,0.957,0.083,1.262,0.247
		c0.308,0.165,0.549,0.367,0.717,0.602c0.171,0.24,0.285,0.491,0.34,0.746c0.06,0.275,0.09,0.511,0.09,0.701
		c0,0.272-0.045,0.543-0.132,0.811c-0.083,0.26-0.222,0.501-0.409,0.717c-0.187,0.213-0.443,0.39-0.761,0.527
		C42.761,50.701,42.355,50.772,41.88,50.772"/>
	<rect x="47.03" y="44.999" fill="#77777A" width="1.313" height="12.114"/>
	<polygon fill="#77777A" points="58.659,44.999 49.187,44.999 49.187,46.212 53.258,46.212 53.258,57.113 54.571,57.113 
		54.571,46.212 58.659,46.212 	"/>
	<path fill="#77777A" d="M61.774,44.999l-4.897,12.114h1.411l1.475-3.693h5.142l1.459,3.693h1.407l-4.812-12.114H61.774z
		 M60.228,52.207l2.149-5.428l2.068,5.428H60.228z"/>
	<polygon fill="#77777A" points="69.817,44.999 68.505,44.999 68.505,57.113 76.387,57.113 76.387,55.9 69.817,55.9 	"/>
	<polygon fill="#77777A" points="86.21,55.372 82.428,44.999 81.04,44.999 85.506,56.918 85.58,57.113 86.822,57.113 91.378,44.999 
		90.022,44.999 	"/>
	<polygon fill="#77777A" points="93.402,51.436 100.053,51.436 100.053,50.224 93.402,50.224 93.402,46.212 100.474,46.212 
		100.474,44.999 92.09,44.999 92.09,57.113 100.556,57.113 100.556,55.9 93.402,55.9 	"/>
	<polygon fill="#77777A" points="100.571,46.212 104.643,46.212 104.643,57.112 105.955,57.112 105.955,46.212 110.044,46.212 
		110.044,44.999 100.571,44.999 	"/>
	<polygon fill="#77777A" points="112.2,51.436 118.851,51.436 118.851,50.224 112.2,50.224 112.2,46.212 119.272,46.212 
		119.272,44.999 110.888,44.999 110.888,57.113 119.354,57.113 119.354,55.9 112.2,55.9 	"/>
	<path fill="#77777A" d="M129.665,56.324c-0.044-0.146-0.075-0.304-0.095-0.472c-0.02-0.177-0.031-0.367-0.031-0.571v-0.662
		c0-0.389-0.022-0.78-0.067-1.163c-0.047-0.408-0.154-0.787-0.319-1.129c-0.174-0.356-0.439-0.661-0.788-0.905
		c-0.115-0.08-0.244-0.152-0.387-0.214c0.399-0.191,0.739-0.456,1.016-0.793c0.482-0.584,0.725-1.308,0.725-2.149
		c0-0.604-0.107-1.121-0.316-1.536c-0.211-0.42-0.509-0.766-0.884-1.025c-0.366-0.252-0.795-0.436-1.27-0.545
		c-0.463-0.106-0.965-0.161-1.496-0.161h-5.133v12.114h1.313v-5.241h3.82c0.632,0,1.119,0.082,1.451,0.243
		c0.316,0.155,0.548,0.359,0.69,0.605c0.151,0.262,0.241,0.565,0.27,0.9c0.03,0.373,0.047,0.75,0.047,1.129
		c0,0.391,0.008,0.77,0.024,1.134c0.019,0.408,0.118,0.77,0.291,1.078l0.086,0.152h1.596l-0.394-0.488
		C129.752,56.55,129.703,56.448,129.665,56.324 M121.932,46.212h3.82c0.364,0,0.718,0.041,1.05,0.121
		c0.318,0.077,0.6,0.202,0.837,0.371c0.23,0.165,0.417,0.383,0.558,0.646c0.137,0.261,0.208,0.586,0.208,0.964
		c0,0.419-0.067,0.779-0.201,1.069c-0.133,0.295-0.308,0.528-0.534,0.716c-0.226,0.187-0.502,0.328-0.822,0.418
		c-0.335,0.095-0.704,0.141-1.096,0.141h-3.82V46.212z"/>
	<rect x="131.487" y="44.999" fill="#77777A" width="1.313" height="12.114"/>
	<polygon fill="#77777A" points="143.132,54.948 136.24,44.999 134.893,44.999 134.893,57.113 136.206,57.113 136.206,47.083 
		143.055,56.983 143.145,57.113 144.446,57.113 144.446,44.999 143.132,44.999 	"/>
	<path fill="#77777A" d="M150.075,44.999l-4.897,12.114h1.411l1.475-3.693h5.142l1.459,3.693h1.407l-4.812-12.114H150.075z
		 M148.529,52.207l2.149-5.428l2.068,5.428H148.529z"/>
	<path fill="#77777A" d="M165.852,56.324c-0.044-0.146-0.075-0.304-0.095-0.472c-0.02-0.177-0.031-0.367-0.031-0.571v-0.662
		c0-0.389-0.022-0.78-0.067-1.163c-0.047-0.408-0.154-0.787-0.319-1.129c-0.174-0.356-0.439-0.661-0.788-0.905
		c-0.115-0.08-0.244-0.152-0.387-0.214c0.399-0.191,0.739-0.456,1.016-0.793c0.482-0.584,0.725-1.308,0.725-2.149
		c0-0.604-0.107-1.121-0.316-1.536c-0.211-0.42-0.509-0.766-0.884-1.025c-0.366-0.252-0.795-0.436-1.27-0.545
		c-0.463-0.106-0.965-0.161-1.496-0.161h-5.133v12.114h1.313v-5.241h3.82c0.632,0,1.119,0.082,1.451,0.243
		c0.316,0.155,0.548,0.359,0.69,0.605c0.151,0.262,0.241,0.565,0.27,0.9c0.03,0.373,0.047,0.75,0.047,1.129
		c0,0.391,0.008,0.77,0.024,1.134c0.019,0.408,0.118,0.77,0.291,1.078l0.086,0.152h1.596L166,56.624
		C165.939,56.55,165.89,56.448,165.852,56.324 M158.12,46.212h3.82c0.364,0,0.718,0.041,1.05,0.121
		c0.318,0.077,0.6,0.202,0.837,0.371c0.23,0.165,0.417,0.383,0.558,0.646c0.137,0.261,0.208,0.586,0.208,0.964
		c0,0.419-0.067,0.779-0.201,1.069c-0.133,0.295-0.308,0.528-0.534,0.716c-0.226,0.187-0.502,0.328-0.822,0.418
		c-0.335,0.095-0.704,0.141-1.096,0.141h-3.82V46.212z"/>
	<rect x="167.674" y="44.999" fill="#77777A" width="1.313" height="12.114"/>
	<path fill="#77777A" d="M180.648,46.578c-0.496-0.572-1.111-1.03-1.829-1.359c-0.718-0.328-1.54-0.494-2.444-0.494
		c-0.904,0-1.729,0.166-2.453,0.494c-0.722,0.329-1.34,0.785-1.837,1.359c-0.494,0.57-0.877,1.249-1.136,2.02
		c-0.258,0.762-0.39,1.588-0.39,2.458c0,0.869,0.132,1.696,0.389,2.458c0.26,0.771,0.643,1.45,1.137,2.019
		c0.497,0.574,1.115,1.031,1.837,1.359c0.724,0.329,1.549,0.495,2.453,0.495c0.905,0,1.727-0.166,2.445-0.495
		c0.717-0.329,1.331-0.785,1.828-1.359c0.493-0.567,0.875-1.246,1.137-2.019c0.258-0.766,0.389-1.594,0.389-2.458
		c0-0.865-0.131-1.692-0.39-2.458C181.523,47.825,181.141,47.146,180.648,46.578 M174.478,55.769
		c-0.553-0.271-1.029-0.639-1.41-1.092c-0.383-0.457-0.681-1.001-0.885-1.62c-0.205-0.62-0.31-1.294-0.31-2.001
		s0.105-1.381,0.31-2.002c0.204-0.618,0.502-1.163,0.885-1.619c0.381-0.454,0.856-0.821,1.41-1.092
		c0.551-0.269,1.19-0.406,1.897-0.406s1.342,0.136,1.886,0.405c0.549,0.27,1.023,0.639,1.404,1.093
		c0.383,0.456,0.681,1.001,0.885,1.619c0.205,0.621,0.309,1.295,0.309,2.002s-0.104,1.381-0.309,2.001
		c-0.204,0.619-0.502,1.163-0.885,1.62c-0.382,0.455-0.855,0.823-1.404,1.093C177.172,56.306,175.581,56.307,174.478,55.769"/>
</g>
</svg>
