<svg version="1.1" id="mision-icon" xmlns="http://www.w3.org/2000/svg" xmlns:xlink="http://www.w3.org/1999/xlink" x="0px"
	 y="0px" width="34px" height="27.33px" viewBox="0 0 34 27.33" enable-background="new 0 0 34 27.33" xml:space="preserve">
<g>
	<g id="jz0BdQ.tif">
		<g>
			<path fill="#467BBE" d="M20.011,27.33c-0.065-0.011-0.146-0.024-0.241-0.028c-2.705-0.113-5.178-0.96-7.35-2.518
				c-2.573-1.845-4.329-4.332-5.221-7.391c-0.222-0.763-0.375-1.583-0.454-2.438c-0.074-0.808-0.086-1.472-0.038-2.091
				c0.015-0.196,0.036-0.392,0.059-0.587l1.059,0.283c-0.27,3.47,0.703,6.555,2.896,9.175c2.013,2.405,4.592,3.864,7.667,4.334
				c0.66,0.101,1.328,0.152,1.984,0.152c2.901,0,5.624-0.967,7.875-2.795c2.146-1.743,3.672-4.162,4.299-6.809
				c0.748-3.159,0.285-6.425-1.304-9.196c-1.549-2.701-4.027-4.721-6.978-5.689c-1.279-0.42-2.603-0.632-3.937-0.632
				c-4.909,0-9.34,2.856-11.407,7.312L7.854,8.128c0.002-0.005,0.005-0.01,0.007-0.016c1.554-3.372,4.084-5.785,7.52-7.172
				c0.963-0.389,2.012-0.66,3.117-0.805c0.275-0.036,0.559-0.056,0.861-0.077c0.156-0.011,0.313-0.022,0.469-0.035
				c0.06-0.005,0.12-0.014,0.181-0.024h0.613c0.073,0.011,0.135,0.019,0.197,0.024c0.149,0.012,0.298,0.023,0.448,0.034
				c0.288,0.021,0.556,0.04,0.82,0.071c1.007,0.116,2.035,0.369,3.056,0.754c2.51,0.945,4.672,2.597,6.254,4.778
				c1.595,2.199,2.486,4.787,2.578,7.482c0.003,0.094,0.015,0.174,0.026,0.232v0.583c-0.01,0.054-0.02,0.118-0.025,0.189
				c-0.008,0.117-0.015,0.231-0.022,0.346c-0.01,0.161-0.019,0.319-0.032,0.477c-0.078,0.928-0.262,1.854-0.548,2.753
				c-0.911,2.867-2.595,5.215-5.005,6.977c-2.209,1.616-4.73,2.492-7.493,2.603c-0.088,0.004-0.163,0.015-0.228,0.027H20.011z"/>
			<path fill="#467BBE" d="M2.644,11.458C1.815,11.233,0.94,10.998,0,10.747c0.637-0.444,2.408-2.12,2.408-2.12
				s-0.84-2.161-1.192-2.851c0.782,0.209,1.645,0.439,1.645,0.439l0.396,0.107C3.453,6.375,3.649,6.428,3.846,6.48
				C4.124,7.428,4.407,8.379,4.69,9.314C3.963,10.071,3.29,10.777,2.644,11.458z"/>
			<path fill="#467BBE" d="M20.341,22.189c-0.381,0-0.766-0.026-1.144-0.078c-2.282-0.313-4.295-1.498-5.666-3.338
				c-1.117-1.499-1.707-3.303-1.69-5.135l1.101,0.295c0.07,2.004,0.845,3.728,2.303,5.127c1.118,1.073,2.473,1.731,4.027,1.959
				c0.356,0.052,0.718,0.078,1.076,0.078c3.522,0,6.57-2.511,7.248-5.972c0.779-3.978-1.804-7.871-5.757-8.68
				c-0.499-0.102-1.007-0.154-1.511-0.154c-2.557,0-4.927,1.33-6.278,3.495c-0.366-0.099-0.732-0.197-1.099-0.294
				c0.599-1.055,1.395-1.947,2.373-2.656c1.5-1.088,3.166-1.639,4.95-1.639c0.328,0,0.665,0.018,1.002,0.055
				c2.286,0.247,4.327,1.381,5.747,3.193c1.426,1.821,2.042,4.08,1.733,6.363C28.187,19.016,24.569,22.189,20.341,22.189z"/>
			<path fill="#467BBE" d="M20.34,16.529c-0.244,0-0.49-0.032-0.729-0.095c-0.826-0.218-1.327-0.694-1.628-1.152l0.05,0.013
				c0.634,0.17,1.267,0.34,1.892,0.5c0.159,0.041,0.324,0.061,0.489,0.061c0.829,0,1.588-0.521,1.889-1.296
				c0.131-0.339,0.268-0.795,0.159-1.323c-0.166-0.8-0.703-1.379-1.474-1.589c-0.629-0.172-1.259-0.341-1.889-0.51
				c0.384-0.187,0.808-0.287,1.238-0.287c0.383,0,0.759,0.078,1.118,0.232c1.381,0.592,2.048,2.124,1.552,3.562
				c-0.388,1.126-1.459,1.883-2.665,1.883H20.34z"/>
		</g>
	</g>
	
		<rect x="6.387" y="11.304" transform="matrix(0.9592 0.2828 -0.2828 0.9592 3.8543 -3.3435)" fill="#467BBE" width="14.242" height="0.75"/>
</g>
</svg>
