<?xml version="1.0" encoding="utf-8"?>
<!-- Generator: Adobe Illustrator 17.0.0, SVG Export Plug-In . SVG Version: 6.00 Build 0)  -->
<!DOCTYPE svg PUBLIC "-//W3C//DTD SVG 1.1//EN" "http://www.w3.org/Graphics/SVG/1.1/DTD/svg11.dtd">
<svg version="1.1" id="Layer_1" xmlns="http://www.w3.org/2000/svg" xmlns:xlink="http://www.w3.org/1999/xlink" x="0px" y="0px"
	 width="506.522px" height="124.541px" viewBox="0 0 506.522 124.541" enable-background="new 0 0 506.522 124.541"
	 xml:space="preserve">
<g>
	<path fill="#86786F" d="M22.591,71.36c0.426-0.084,0.852-0.168,1.277-0.252c1.099,0,0.81,1.379,0.86,2.094
		c0.128,1.807,0.052,3.628,0.052,5.444c0.003,13.229-0.028,26.458,0.025,39.687c0.015,4.002,1.964,6.103,5.425,6.206
		c3.376,0.101,5.684-2.166,5.887-5.824c0.057-1.033,0.019-2.073,0.019-3.11c0.001-24.902-0.009-49.805,0.026-74.705
		c0.002-1.43,0.364-2.858,0.559-4.287c0.467,0.035,0.933,0.07,1.4,0.104c0.102,1.325,0.289,2.649,0.294,3.974
		c0.032,8.559-0.009,17.12,0.049,25.68c0.018,2.712,1.007,5.077,4.111,5.11c3.134,0.032,4.115-2.36,4.162-5.056
		c0.091-5.315,0.095-10.635,0.024-15.951c-0.079-5.955,0.172-11.965-0.549-17.849c-0.826-6.743-5.329-10.166-12.064-10.205
		c-7.004-0.041-14.008-0.02-21.011-0.007c-7.342,0.014-12.32,3.57-12.73,10.796c-0.646,11.375-0.4,22.813-0.098,34.213
		c0.038,1.409,2.726,2.747,4.186,4.118c1.243-1.412,2.667-2.712,3.652-4.286c0.471-0.752,0.123-2.024,0.124-3.062
		c0.004-8.042-0.03-16.083,0.04-24.124c0.01-1.169,0.51-2.334,0.784-3.501c0.423,0.044,0.847,0.088,1.271,0.132
		c0.122,1.453,0.35,2.906,0.351,4.359c0.022,24.901,0.014,49.803,0.02,74.704c0.001,1.296-0.065,2.61,0.126,3.883
		c0.471,3.146,2.435,4.82,5.567,4.863c3.132,0.043,5.162-1.564,5.704-4.705c0.241-1.393,0.223-2.841,0.225-4.264
		c0.015-13.357,0.003-26.717,0.019-40.076C22.379,74.094,22.516,72.728,22.591,71.36 M22.953,0.001
		c-5.749-0.085-10.403,4.459-10.43,10.183c-0.027,5.781,4.457,10.228,10.32,10.236c5.735,0.008,10.078-4.229,10.17-9.921
		C33.108,4.616,28.767,0.088,22.953,0.001"/>
	<path fill="#86786F" d="M22.591,71.36c-0.916,0.149-0.211,2.735-0.213,4.103c-0.017,13.359-0.004,26.718-0.02,40.076
		c-0.001,1.423,0.016,2.871-0.224,4.264c-0.542,3.141-2.573,4.748-5.704,4.705c-3.133-0.042-5.096-1.718-5.567-4.863
		c-0.191-1.271-0.126-2.587-0.126-3.883c-0.006-24.9,0.001-49.803-0.02-74.705c-0.002-1.453-0.23-2.904-0.352-4.357
		c-0.423-0.044-0.847-0.088-1.271-0.132c-0.273,1.167-0.773,2.331-0.784,3.501c-0.069,8.04-0.035,16.082-0.039,24.123
		c-0.001,1.036-0.001,1.036-0.124,3.062c-0.113,1.854,0.466,4.286-3.653,4.286c-3.607,0-4.148-2.709-4.185-4.117
		C0.007,56.02-0.239,44.582,0.406,33.207c0.411-7.226,5.389-10.781,12.73-10.795c7.004-0.014,14.008-0.034,21.011,0.006
		c6.736,0.039,11.239,3.462,12.065,10.206c0.721,5.884,0.47,11.893,0.549,17.848c0.071,5.316,0.067,10.637-0.025,15.952
		c-0.046,2.695-1.027,5.088-4.162,5.054c-3.103-0.031-4.092-2.397-4.111-5.109c-0.057-8.559-0.017-17.12-0.049-25.679
		c-0.005-1.325-0.191-2.649-0.294-3.974c-0.466-0.035-0.933-0.069-1.399-0.104c-0.195,1.429-0.558,2.857-0.56,4.287
		c-0.034,24.901-0.025,49.803-0.025,74.704c0,1.037,0.038,2.077-0.019,3.112c-0.203,3.657-2.511,5.923-5.887,5.823
		c-3.461-0.104-5.41-2.204-5.426-6.206c-0.052-13.23-0.022-26.458-0.024-39.688c-0.001-1.815,0.075-3.637-0.052-5.443
		c-0.051-0.715,0.989-1.858-0.86-2.094C23.442,71.192,23.017,71.276,22.591,71.36"/>
	<path fill="#86786F" d="M22.953,0.001c5.814,0.086,10.155,4.615,10.06,10.498c-0.092,5.692-4.435,9.929-10.17,9.921
		c-5.863-0.008-10.347-4.455-10.32-10.236C12.551,4.461,17.204-0.084,22.953,0.001"/>
	<path fill="#86786F" d="M73.67,71.36c0.426-0.084,0.852-0.168,1.277-0.252c1.099,0,0.81,1.379,0.86,2.094
		c0.128,1.807,0.052,3.628,0.052,5.444c0.003,13.229-0.028,26.458,0.025,39.687c0.015,4.002,1.964,6.103,5.425,6.206
		c3.376,0.101,5.684-2.166,5.887-5.824c0.057-1.033,0.019-2.073,0.019-3.11c0.001-24.902-0.009-49.805,0.026-74.705
		c0.002-1.43,0.364-2.858,0.559-4.287c0.467,0.035,0.933,0.07,1.4,0.104c0.102,1.325,0.289,2.649,0.294,3.974
		c0.032,8.559-0.009,17.12,0.049,25.68c0.018,2.712,1.007,5.077,4.111,5.11c3.134,0.032,4.115-2.36,4.162-5.056
		c0.091-5.315,0.095-10.635,0.024-15.951c-0.079-5.955,0.172-11.965-0.549-17.849c-0.826-6.743-5.329-10.166-12.064-10.205
		c-7.004-0.041-14.008-0.02-21.011-0.007c-7.342,0.014-12.32,3.57-12.73,10.796c-0.646,11.375-0.4,22.813-0.098,34.213
		c0.038,1.409,2.726,2.747,4.186,4.118c1.243-1.412,2.667-2.712,3.652-4.286c0.471-0.752,0.123-2.024,0.124-3.062
		c0.004-8.042-0.03-16.083,0.04-24.124c0.01-1.169,0.51-2.334,0.784-3.501c0.423,0.044,0.847,0.088,1.271,0.132
		c0.122,1.453,0.35,2.906,0.351,4.359c0.022,24.901,0.014,49.803,0.02,74.704c0.001,1.296-0.065,2.61,0.126,3.883
		c0.471,3.146,2.435,4.82,5.567,4.863c3.132,0.043,5.162-1.564,5.704-4.705c0.241-1.393,0.223-2.841,0.225-4.264
		c0.015-13.357,0.003-26.717,0.019-40.076C73.458,74.094,73.596,72.728,73.67,71.36 M74.033,0.001
		c-5.749-0.085-10.403,4.459-10.43,10.183c-0.027,5.781,4.457,10.228,10.32,10.236c5.735,0.008,10.078-4.229,10.17-9.921
		C84.187,4.616,79.847,0.088,74.033,0.001"/>
	<path fill="#86786F" d="M73.67,71.36c-0.916,0.149-0.211,2.735-0.213,4.103c-0.017,13.359-0.004,26.718-0.02,40.076
		c-0.001,1.423,0.016,2.871-0.224,4.264c-0.542,3.141-2.573,4.748-5.704,4.705c-3.133-0.042-5.096-1.718-5.567-4.863
		c-0.191-1.271-0.126-2.587-0.126-3.883c-0.006-24.9,0.001-49.803-0.02-74.705c-0.002-1.453-0.23-2.904-0.352-4.357
		c-0.423-0.044-0.847-0.088-1.271-0.132c-0.273,1.167-0.773,2.331-0.784,3.501c-0.069,8.04-0.035,16.082-0.039,24.123
		c-0.001,1.036-0.001,1.036-0.124,3.062c-0.113,1.854,0.466,4.286-3.653,4.286c-3.607,0-4.148-2.709-4.185-4.117
		c-0.302-11.401-0.548-22.839,0.097-34.214c0.411-7.226,5.389-10.781,12.73-10.795c7.004-0.014,14.008-0.034,21.011,0.006
		c6.736,0.039,11.239,3.462,12.065,10.206c0.721,5.884,0.47,11.893,0.549,17.848c0.071,5.316,0.067,10.637-0.025,15.952
		c-0.046,2.695-1.027,5.088-4.162,5.054c-3.103-0.031-4.092-2.397-4.111-5.109c-0.057-8.559-0.017-17.12-0.049-25.679
		c-0.005-1.325-0.191-2.649-0.294-3.974c-0.466-0.035-0.933-0.069-1.399-0.104c-0.195,1.429-0.558,2.857-0.56,4.287
		c-0.034,24.901-0.025,49.803-0.025,74.704c0,1.037,0.038,2.077-0.019,3.112c-0.203,3.657-2.511,5.923-5.887,5.823
		c-3.461-0.104-5.41-2.204-5.426-6.206c-0.052-13.23-0.022-26.458-0.024-39.688c-0.001-1.815,0.075-3.637-0.052-5.443
		c-0.051-0.715,0.989-1.858-0.86-2.094C74.521,71.192,74.096,71.276,73.67,71.36"/>
	<path fill="#86786F" d="M74.033,0.001c5.814,0.086,10.155,4.615,10.06,10.498c-0.092,5.692-4.435,9.929-10.17,9.921
		c-5.863-0.008-10.347-4.455-10.32-10.236C63.63,4.461,68.284-0.084,74.033,0.001"/>
	<path fill="#86786F" d="M124.749,71.36c0.426-0.084,0.852-0.168,1.277-0.252c1.099,0,0.81,1.379,0.86,2.094
		c0.128,1.807,0.052,3.628,0.052,5.444c0.003,13.229-0.028,26.458,0.025,39.687c0.015,4.002,1.964,6.103,5.425,6.206
		c3.376,0.101,5.684-2.166,5.887-5.824c0.057-1.033,0.019-2.073,0.019-3.11c0.001-24.902-0.009-49.805,0.026-74.705
		c0.002-1.43,0.364-2.858,0.559-4.287c0.467,0.035,0.933,0.07,1.4,0.104c0.102,1.325,0.289,2.649,0.294,3.974
		c0.032,8.559-0.009,17.12,0.049,25.68c0.018,2.712,1.007,5.077,4.111,5.11c3.134,0.032,4.115-2.36,4.162-5.056
		c0.091-5.315,0.095-10.635,0.024-15.951c-0.079-5.955,0.172-11.965-0.549-17.849c-0.826-6.743-5.329-10.166-12.064-10.205
		c-7.004-0.041-14.008-0.02-21.011-0.007c-7.342,0.014-12.32,3.57-12.73,10.796c-0.646,11.375-0.4,22.813-0.098,34.213
		c0.038,1.409,2.726,2.747,4.186,4.118c1.243-1.412,2.667-2.712,3.652-4.286c0.471-0.752,0.123-2.024,0.124-3.062
		c0.004-8.042-0.03-16.083,0.04-24.124c0.01-1.169,0.51-2.334,0.784-3.501c0.423,0.044,0.847,0.088,1.271,0.132
		c0.122,1.453,0.35,2.906,0.351,4.359c0.022,24.901,0.014,49.803,0.02,74.704c0.001,1.296-0.065,2.61,0.126,3.883
		c0.471,3.146,2.435,4.82,5.567,4.863c3.132,0.043,5.162-1.564,5.704-4.705c0.241-1.393,0.223-2.841,0.225-4.264
		c0.015-13.357,0.003-26.717,0.019-40.076C124.537,74.094,124.675,72.728,124.749,71.36 M125.112,0.001
		c-5.749-0.085-10.403,4.459-10.43,10.183c-0.027,5.781,4.457,10.228,10.32,10.236c5.735,0.008,10.078-4.229,10.17-9.921
		C135.266,4.616,130.926,0.088,125.112,0.001"/>
	<path fill="#86786F" d="M124.749,71.36c-0.916,0.149-0.211,2.735-0.213,4.103c-0.017,13.359-0.004,26.718-0.02,40.076
		c-0.001,1.423,0.016,2.871-0.224,4.264c-0.542,3.141-2.573,4.748-5.704,4.705c-3.133-0.042-5.096-1.718-5.567-4.863
		c-0.191-1.271-0.126-2.587-0.126-3.883c-0.006-24.9,0.001-49.803-0.02-74.705c-0.003-1.453-0.23-2.904-0.352-4.357
		c-0.423-0.044-0.847-0.088-1.271-0.132c-0.273,1.167-0.773,2.331-0.784,3.501c-0.069,8.04-0.035,16.082-0.039,24.123
		c-0.001,1.036-0.001,1.036-0.124,3.062c-0.113,1.854,0.466,4.286-3.653,4.286c-3.607,0-4.148-2.709-4.185-4.117
		c-0.302-11.401-0.548-22.839,0.097-34.214c0.411-7.226,5.389-10.781,12.73-10.795c7.004-0.014,14.008-0.034,21.011,0.006
		c6.736,0.039,11.239,3.462,12.065,10.206c0.721,5.884,0.47,11.893,0.549,17.848c0.071,5.316,0.067,10.637-0.025,15.952
		c-0.046,2.695-1.027,5.088-4.162,5.054c-3.103-0.031-4.092-2.397-4.111-5.109c-0.057-8.559-0.017-17.12-0.049-25.679
		c-0.005-1.325-0.191-2.649-0.294-3.974c-0.466-0.035-0.933-0.069-1.399-0.104c-0.195,1.429-0.558,2.857-0.56,4.287
		c-0.034,24.901-0.025,49.803-0.025,74.704c0,1.037,0.038,2.077-0.019,3.112c-0.203,3.657-2.511,5.923-5.887,5.823
		c-3.461-0.104-5.41-2.204-5.426-6.206c-0.052-13.23-0.022-26.458-0.024-39.688c-0.001-1.815,0.075-3.637-0.052-5.443
		c-0.051-0.715,0.989-1.858-0.86-2.094C125.6,71.192,125.175,71.276,124.749,71.36"/>
	<path fill="#86786F" d="M125.112,0.001c5.814,0.086,10.155,4.615,10.06,10.498c-0.092,5.692-4.435,9.929-10.17,9.921
		c-5.863-0.008-10.347-4.455-10.32-10.236C114.709,4.461,119.363-0.084,125.112,0.001"/>
	<path fill="#86786F" d="M175.828,71.36c0.426-0.084,0.852-0.168,1.277-0.252c1.099,0,0.81,1.379,0.86,2.094
		c0.128,1.807,0.052,3.628,0.052,5.444c0.003,13.229-0.028,26.458,0.025,39.687c0.015,4.002,1.964,6.103,5.425,6.206
		c3.376,0.101,5.684-2.166,5.887-5.824c0.057-1.033,0.019-2.073,0.019-3.11c0.001-24.902-0.009-49.805,0.026-74.705
		c0.002-1.43,0.364-2.858,0.559-4.287c0.467,0.035,0.933,0.07,1.4,0.104c0.102,1.325,0.289,2.649,0.294,3.974
		c0.032,8.559-0.009,17.12,0.049,25.68c0.018,2.712,1.007,5.077,4.111,5.11c3.134,0.032,4.115-2.36,4.162-5.056
		c0.091-5.315,0.095-10.635,0.024-15.951c-0.079-5.955,0.172-11.965-0.549-17.849c-0.826-6.743-5.329-10.166-12.064-10.205
		c-7.004-0.041-14.008-0.02-21.011-0.007c-7.342,0.014-12.32,3.57-12.73,10.796c-0.646,11.375-0.4,22.813-0.098,34.213
		c0.038,1.409,2.726,2.747,4.186,4.118c1.243-1.412,2.667-2.712,3.652-4.286c0.471-0.752,0.123-2.024,0.124-3.062
		c0.004-8.042-0.03-16.083,0.04-24.124c0.01-1.169,0.51-2.334,0.784-3.501c0.423,0.044,0.847,0.088,1.271,0.132
		c0.122,1.453,0.35,2.906,0.351,4.359c0.022,24.901,0.014,49.803,0.02,74.704c0.001,1.296-0.065,2.61,0.126,3.883
		c0.471,3.146,2.435,4.82,5.567,4.863s5.162-1.564,5.704-4.705c0.241-1.393,0.223-2.841,0.225-4.264
		c0.015-13.357,0.003-26.717,0.019-40.076C175.617,74.094,175.754,72.728,175.828,71.36 M176.191,0.001
		c-5.749-0.085-10.403,4.459-10.43,10.183c-0.027,5.781,4.457,10.228,10.32,10.236c5.735,0.008,10.078-4.229,10.17-9.921
		C186.346,4.616,182.005,0.088,176.191,0.001"/>
	<path fill="#86786F" d="M175.828,71.36c-0.916,0.149-0.211,2.735-0.213,4.103c-0.017,13.359-0.004,26.718-0.02,40.076
		c-0.001,1.423,0.016,2.871-0.224,4.264c-0.542,3.141-2.573,4.748-5.704,4.705c-3.133-0.042-5.096-1.718-5.567-4.863
		c-0.191-1.271-0.126-2.587-0.126-3.883c-0.006-24.9,0.001-49.803-0.02-74.705c-0.003-1.453-0.23-2.904-0.352-4.357
		c-0.423-0.044-0.847-0.088-1.271-0.132c-0.273,1.167-0.773,2.331-0.784,3.501c-0.069,8.04-0.035,16.082-0.039,24.123
		c-0.001,1.036-0.001,1.036-0.124,3.062c-0.113,1.854,0.466,4.286-3.653,4.286c-3.607,0-4.148-2.709-4.185-4.117
		c-0.302-11.401-0.548-22.839,0.097-34.214c0.411-7.226,5.389-10.781,12.73-10.795c7.004-0.014,14.008-0.034,21.011,0.006
		c6.736,0.039,11.239,3.462,12.065,10.206c0.721,5.884,0.47,11.893,0.549,17.848c0.071,5.316,0.067,10.637-0.025,15.952
		c-0.046,2.695-1.027,5.088-4.162,5.054c-3.103-0.031-4.092-2.397-4.111-5.109c-0.057-8.559-0.017-17.12-0.049-25.679
		c-0.005-1.325-0.191-2.649-0.294-3.974c-0.466-0.035-0.933-0.069-1.399-0.104c-0.195,1.429-0.558,2.857-0.56,4.287
		c-0.034,24.901-0.025,49.803-0.025,74.704c0,1.037,0.038,2.077-0.019,3.112c-0.203,3.657-2.511,5.923-5.887,5.823
		c-3.461-0.104-5.41-2.204-5.426-6.206c-0.052-13.23-0.022-26.458-0.024-39.688c-0.001-1.815,0.075-3.637-0.052-5.443
		c-0.051-0.715,0.989-1.858-0.86-2.094C176.679,71.192,176.254,71.276,175.828,71.36"/>
	<path fill="#86786F" d="M176.191,0.001c5.814,0.086,10.155,4.615,10.06,10.498c-0.092,5.692-4.435,9.929-10.17,9.921
		c-5.863-0.008-10.347-4.455-10.32-10.236C165.788,4.461,170.442-0.084,176.191,0.001"/>
	<path fill="#86786F" d="M226.907,71.36c0.426-0.084,0.852-0.168,1.277-0.252c1.099,0,0.81,1.379,0.86,2.094
		c0.128,1.807,0.052,3.628,0.052,5.444c0.003,13.229-0.028,26.458,0.025,39.687c0.015,4.002,1.964,6.103,5.425,6.206
		c3.376,0.101,5.684-2.166,5.887-5.824c0.057-1.033,0.019-2.073,0.019-3.11c0.001-24.902-0.009-49.805,0.026-74.705
		c0.002-1.43,0.364-2.858,0.559-4.287c0.467,0.035,0.933,0.07,1.4,0.104c0.102,1.325,0.289,2.649,0.294,3.974
		c0.032,8.559-0.009,17.12,0.049,25.68c0.018,2.712,1.007,5.077,4.111,5.11c3.134,0.032,4.115-2.36,4.162-5.056
		c0.091-5.315,0.095-10.635,0.024-15.951c-0.079-5.955,0.172-11.965-0.549-17.849c-0.826-6.743-5.329-10.166-12.064-10.205
		c-7.004-0.041-14.008-0.02-21.011-0.007c-7.342,0.014-12.32,3.57-12.73,10.796c-0.646,11.375-0.4,22.813-0.098,34.213
		c0.038,1.409,2.726,2.747,4.186,4.118c1.243-1.412,2.667-2.712,3.652-4.286c0.471-0.752,0.123-2.024,0.124-3.062
		c0.004-8.042-0.03-16.083,0.04-24.124c0.01-1.169,0.51-2.334,0.784-3.501c0.423,0.044,0.847,0.088,1.271,0.132
		c0.122,1.453,0.35,2.906,0.351,4.359c0.022,24.901,0.014,49.803,0.02,74.704c0.001,1.296-0.065,2.61,0.126,3.883
		c0.471,3.146,2.435,4.82,5.567,4.863c3.132,0.043,5.162-1.564,5.704-4.705c0.241-1.393,0.223-2.841,0.225-4.264
		c0.015-13.357,0.003-26.717,0.019-40.076C226.696,74.094,226.833,72.728,226.907,71.36 M227.27,0.001
		c-5.749-0.085-10.403,4.459-10.43,10.183c-0.027,5.781,4.457,10.228,10.32,10.236c5.735,0.008,10.078-4.229,10.17-9.921
		C237.425,4.616,233.084,0.088,227.27,0.001"/>
	<path fill="#86786F" d="M226.908,71.36c-0.916,0.149-0.211,2.735-0.213,4.103c-0.017,13.359-0.004,26.718-0.02,40.076
		c-0.001,1.423,0.016,2.871-0.224,4.264c-0.542,3.141-2.573,4.748-5.704,4.705c-3.133-0.042-5.096-1.718-5.567-4.863
		c-0.191-1.271-0.126-2.587-0.126-3.883c-0.006-24.9,0.001-49.803-0.02-74.705c-0.002-1.453-0.23-2.904-0.352-4.357
		c-0.423-0.044-0.847-0.088-1.271-0.132c-0.273,1.167-0.773,2.331-0.784,3.501c-0.069,8.04-0.035,16.082-0.039,24.123
		c-0.001,1.036-0.001,1.036-0.124,3.062c-0.113,1.854,0.466,4.286-3.653,4.286c-3.607,0-4.148-2.709-4.185-4.117
		c-0.302-11.401-0.548-22.839,0.097-34.214c0.411-7.226,5.389-10.781,12.73-10.795c7.004-0.014,14.008-0.034,21.011,0.006
		c6.736,0.039,11.239,3.462,12.065,10.206c0.721,5.884,0.47,11.893,0.549,17.848c0.071,5.316,0.067,10.637-0.025,15.952
		c-0.046,2.695-1.027,5.088-4.162,5.054c-3.103-0.031-4.092-2.397-4.111-5.109c-0.057-8.559-0.017-17.12-0.049-25.679
		c-0.005-1.325-0.191-2.649-0.294-3.974c-0.466-0.035-0.933-0.069-1.399-0.104c-0.195,1.429-0.558,2.857-0.56,4.287
		c-0.034,24.901-0.025,49.803-0.025,74.704c0,1.037,0.038,2.077-0.019,3.112c-0.203,3.657-2.511,5.923-5.887,5.823
		c-3.461-0.104-5.41-2.204-5.426-6.206c-0.052-13.23-0.022-26.458-0.024-39.688c-0.001-1.815,0.075-3.637-0.052-5.443
		c-0.051-0.715,0.989-1.858-0.86-2.094C227.758,71.192,227.333,71.276,226.908,71.36"/>
	<path fill="#86786F" d="M227.27,0.001c5.814,0.086,10.155,4.615,10.06,10.498c-0.092,5.692-4.435,9.929-10.17,9.921
		c-5.863-0.008-10.347-4.455-10.32-10.236C216.867,4.461,221.521-0.084,227.27,0.001"/>
	<path fill="#86786F" d="M277.986,71.36c0.426-0.084,0.852-0.168,1.277-0.252c1.099,0,0.81,1.379,0.859,2.094
		c0.128,1.807,0.052,3.628,0.052,5.444c0.003,13.229-0.027,26.458,0.025,39.687c0.015,4.002,1.964,6.103,5.425,6.206
		c3.376,0.101,5.685-2.166,5.887-5.824c0.058-1.033,0.02-2.073,0.02-3.11c0.001-24.902-0.009-49.805,0.026-74.705
		c0.002-1.43,0.363-2.858,0.559-4.287c0.467,0.035,0.933,0.07,1.4,0.104c0.102,1.325,0.289,2.649,0.294,3.974
		c0.031,8.559-0.01,17.12,0.049,25.68c0.018,2.712,1.007,5.077,4.11,5.11c3.135,0.032,4.115-2.36,4.162-5.056
		c0.092-5.315,0.096-10.635,0.025-15.951c-0.079-5.955,0.172-11.965-0.549-17.849c-0.826-6.743-5.329-10.166-12.064-10.205
		c-7.004-0.041-14.008-0.02-21.011-0.007c-7.342,0.014-12.32,3.57-12.73,10.796c-0.646,11.375-0.4,22.813-0.098,34.213
		c0.038,1.409,2.727,2.747,4.186,4.118c1.242-1.412,2.667-2.712,3.651-4.286c0.472-0.752,0.123-2.024,0.124-3.062
		c0.004-8.042-0.03-16.083,0.04-24.124c0.01-1.169,0.51-2.334,0.784-3.501c0.423,0.044,0.847,0.088,1.271,0.132
		c0.122,1.453,0.351,2.906,0.352,4.359c0.022,24.901,0.014,49.803,0.02,74.704c0.001,1.296-0.064,2.61,0.126,3.883
		c0.472,3.146,2.436,4.82,5.567,4.863c3.132,0.043,5.162-1.564,5.704-4.705c0.241-1.393,0.223-2.841,0.225-4.264
		c0.016-13.357,0.003-26.717,0.02-40.076C277.775,74.094,277.912,72.728,277.986,71.36 M278.349,0.001
		c-5.749-0.085-10.403,4.459-10.431,10.183c-0.026,5.781,4.457,10.228,10.32,10.236c5.735,0.008,10.078-4.229,10.17-9.921
		C288.504,4.616,284.163,0.088,278.349,0.001"/>
	<path fill="#86786F" d="M277.986,71.36c-0.916,0.149-0.211,2.735-0.213,4.103c-0.017,13.359-0.004,26.718-0.02,40.076
		c-0.001,1.423,0.016,2.871-0.225,4.264c-0.542,3.141-2.572,4.748-5.703,4.705c-3.134-0.042-5.097-1.718-5.567-4.863
		c-0.191-1.271-0.126-2.587-0.126-3.883c-0.006-24.9,0.001-49.803-0.021-74.705c-0.002-1.453-0.229-2.904-0.352-4.357
		c-0.423-0.044-0.847-0.088-1.271-0.132c-0.273,1.167-0.773,2.331-0.783,3.501c-0.069,8.04-0.035,16.082-0.039,24.123
		c-0.001,1.036-0.001,1.036-0.124,3.062c-0.113,1.854,0.466,4.286-3.653,4.286c-3.607,0-4.148-2.709-4.185-4.117
		c-0.302-11.401-0.548-22.839,0.097-34.214c0.411-7.226,5.389-10.781,12.73-10.795c7.005-0.014,14.009-0.034,21.012,0.006
		c6.735,0.039,11.238,3.462,12.064,10.206c0.722,5.884,0.471,11.893,0.549,17.848c0.071,5.316,0.067,10.637-0.025,15.952
		c-0.046,2.695-1.027,5.088-4.162,5.054c-3.103-0.031-4.092-2.397-4.111-5.109c-0.057-8.559-0.017-17.12-0.049-25.679
		c-0.005-1.325-0.19-2.649-0.294-3.974c-0.466-0.035-0.933-0.069-1.399-0.104c-0.194,1.429-0.558,2.857-0.56,4.287
		c-0.034,24.901-0.025,49.803-0.025,74.704c0,1.037,0.038,2.077-0.019,3.112c-0.203,3.657-2.511,5.923-5.887,5.823
		c-3.461-0.104-5.41-2.204-5.427-6.206c-0.052-13.23-0.022-26.458-0.023-39.688c-0.001-1.815,0.075-3.637-0.052-5.443
		c-0.052-0.715,0.988-1.858-0.86-2.094C278.838,71.192,278.413,71.276,277.986,71.36"/>
	<path fill="#86786F" d="M278.349,0.001c5.814,0.086,10.154,4.615,10.06,10.498c-0.092,5.692-4.435,9.929-10.17,9.921
		c-5.863-0.008-10.347-4.455-10.32-10.236C267.946,4.461,272.6-0.084,278.349,0.001"/>
	<path fill="#8F1336" d="M380.144,71.36c0.426-0.084,0.852-0.168,1.277-0.252c1.099,0,0.81,1.379,0.859,2.094
		c0.128,1.807,0.053,3.628,0.053,5.444c0.003,13.229-0.028,26.458,0.024,39.687c0.015,4.002,1.964,6.103,5.425,6.206
		c3.376,0.101,5.685-2.166,5.888-5.824c0.057-1.033,0.019-2.073,0.019-3.11c0.001-24.902-0.009-49.805,0.026-74.705
		c0.002-1.43,0.363-2.858,0.559-4.287c0.467,0.035,0.933,0.07,1.4,0.104c0.102,1.325,0.289,2.649,0.294,3.974
		c0.031,8.559-0.009,17.12,0.049,25.68c0.018,2.712,1.007,5.077,4.111,5.11c3.134,0.032,4.114-2.36,4.161-5.056
		c0.092-5.315,0.096-10.635,0.025-15.951c-0.079-5.955,0.172-11.965-0.549-17.849c-0.826-6.743-5.329-10.166-12.064-10.205
		c-7.004-0.041-14.008-0.02-21.011-0.007c-7.342,0.014-12.32,3.57-12.729,10.796c-0.646,11.375-0.4,22.813-0.099,34.213
		c0.038,1.409,2.727,2.747,4.186,4.118c1.242-1.412,2.667-2.712,3.651-4.286c0.472-0.752,0.123-2.024,0.124-3.062
		c0.004-8.042-0.029-16.083,0.04-24.124c0.01-1.169,0.51-2.334,0.784-3.501c0.423,0.044,0.847,0.088,1.271,0.132
		c0.121,1.453,0.35,2.906,0.351,4.359c0.022,24.901,0.014,49.803,0.02,74.704c0.001,1.296-0.064,2.61,0.126,3.883
		c0.472,3.146,2.436,4.82,5.567,4.863s5.162-1.564,5.704-4.705c0.241-1.393,0.223-2.841,0.225-4.264
		c0.016-13.357,0.003-26.717,0.02-40.076C379.933,74.094,380.07,72.728,380.144,71.36 M380.508,0.001
		c-5.749-0.085-10.403,4.459-10.431,10.183c-0.026,5.781,4.457,10.228,10.32,10.236c5.735,0.008,10.078-4.229,10.17-9.921
		C390.662,4.616,386.321,0.088,380.508,0.001"/>
	<path fill="#8F1336" d="M380.144,71.36c-0.916,0.149-0.211,2.735-0.213,4.103c-0.016,13.359-0.004,26.718-0.02,40.076
		c-0.001,1.423,0.016,2.871-0.225,4.264c-0.542,3.141-2.572,4.748-5.703,4.705c-3.134-0.042-5.097-1.718-5.567-4.863
		c-0.191-1.271-0.126-2.587-0.126-3.883c-0.006-24.9,0.001-49.803-0.021-74.705c-0.002-1.453-0.229-2.904-0.352-4.357
		c-0.423-0.044-0.847-0.088-1.271-0.132c-0.272,1.167-0.772,2.331-0.783,3.501c-0.069,8.04-0.035,16.082-0.039,24.123
		c-0.001,1.036-0.001,1.036-0.124,3.062c-0.113,1.854,0.466,4.286-3.653,4.286c-3.608,0-4.148-2.709-4.185-4.117
		c-0.303-11.401-0.549-22.839,0.097-34.214c0.411-7.226,5.389-10.781,12.729-10.795c7.005-0.014,14.009-0.034,21.012,0.006
		c6.735,0.039,11.238,3.462,12.064,10.206c0.722,5.884,0.471,11.893,0.549,17.848c0.071,5.316,0.067,10.637-0.025,15.952
		c-0.046,2.695-1.027,5.088-4.162,5.054c-3.103-0.031-4.092-2.397-4.111-5.109c-0.057-8.559-0.017-17.12-0.049-25.679
		c-0.005-1.325-0.19-2.649-0.294-3.974c-0.466-0.035-0.933-0.069-1.399-0.104c-0.194,1.429-0.558,2.857-0.56,4.287
		c-0.034,24.901-0.025,49.803-0.025,74.704c0,1.037,0.038,2.077-0.019,3.112c-0.203,3.657-2.511,5.923-5.887,5.823
		c-3.461-0.104-5.41-2.204-5.427-6.206c-0.052-13.23-0.021-26.458-0.023-39.688c-0.001-1.815,0.075-3.637-0.052-5.443
		c-0.052-0.715,0.988-1.858-0.86-2.094C380.996,71.192,380.571,71.276,380.144,71.36"/>
	<path fill="#8F1336" d="M380.508,0.001c5.813,0.086,10.154,4.615,10.06,10.498c-0.092,5.692-4.435,9.929-10.17,9.921
		c-5.863-0.008-10.347-4.455-10.32-10.236C370.104,4.461,374.759-0.084,380.508,0.001"/>
	<path fill="#8F1336" d="M431.223,71.36c0.426-0.084,0.852-0.168,1.277-0.252c1.099,0,0.81,1.379,0.859,2.094
		c0.128,1.807,0.052,3.628,0.052,5.444c0.004,13.229-0.027,26.458,0.025,39.687c0.015,4.002,1.964,6.103,5.425,6.206
		c3.376,0.101,5.685-2.166,5.888-5.824c0.057-1.033,0.019-2.073,0.019-3.11c0.001-24.902-0.009-49.805,0.026-74.705
		c0.002-1.43,0.363-2.858,0.559-4.287c0.467,0.035,0.933,0.07,1.4,0.104c0.102,1.325,0.289,2.649,0.294,3.974
		c0.032,8.559-0.009,17.12,0.049,25.68c0.018,2.712,1.007,5.077,4.111,5.11c3.134,0.032,4.114-2.36,4.161-5.056
		c0.092-5.315,0.096-10.635,0.025-15.951c-0.079-5.955,0.172-11.965-0.549-17.849c-0.826-6.743-5.329-10.166-12.064-10.205
		c-7.004-0.041-14.008-0.02-21.011-0.007c-7.342,0.014-12.32,3.57-12.729,10.796c-0.646,11.375-0.4,22.813-0.099,34.213
		c0.038,1.409,2.727,2.747,4.186,4.118c1.243-1.412,2.667-2.712,3.651-4.286c0.472-0.752,0.123-2.024,0.124-3.062
		c0.004-8.042-0.029-16.083,0.04-24.124c0.01-1.169,0.51-2.334,0.784-3.501c0.423,0.044,0.847,0.088,1.272,0.132
		c0.122,1.453,0.35,2.906,0.351,4.359c0.021,24.901,0.014,49.803,0.02,74.704c0.002,1.296-0.063,2.61,0.127,3.883
		c0.471,3.146,2.435,4.82,5.566,4.863s5.162-1.564,5.704-4.705c0.241-1.393,0.223-2.841,0.225-4.264
		c0.016-13.357,0.003-26.717,0.02-40.076C431.013,74.094,431.149,72.728,431.223,71.36 M431.587,0.001
		c-5.749-0.085-10.403,4.459-10.431,10.183c-0.026,5.781,4.457,10.228,10.32,10.236c5.735,0.008,10.078-4.229,10.17-9.921
		C441.741,4.616,437.4,0.088,431.587,0.001"/>
	<path fill="#8F1336" d="M431.223,71.36c-0.916,0.149-0.211,2.735-0.213,4.103c-0.016,13.359-0.004,26.718-0.02,40.076
		c-0.001,1.423,0.016,2.871-0.224,4.264c-0.543,3.141-2.573,4.748-5.704,4.705c-3.134-0.042-5.097-1.718-5.567-4.863
		c-0.191-1.271-0.126-2.587-0.126-3.883c-0.006-24.9,0.001-49.803-0.02-74.705c-0.002-1.453-0.229-2.904-0.352-4.357
		c-0.423-0.044-0.847-0.088-1.271-0.132c-0.273,1.167-0.773,2.331-0.784,3.501c-0.069,8.04-0.035,16.082-0.039,24.123
		c-0.001,1.036-0.001,1.036-0.124,3.062c-0.112,1.854,0.466,4.286-3.653,4.286c-3.607,0-4.148-2.709-4.185-4.117
		c-0.303-11.401-0.548-22.839,0.097-34.214c0.411-7.226,5.389-10.781,12.73-10.795c7.004-0.014,14.008-0.034,21.011,0.006
		c6.735,0.039,11.239,3.462,12.064,10.206c0.722,5.884,0.471,11.893,0.55,17.848c0.07,5.316,0.066,10.637-0.025,15.952
		c-0.046,2.695-1.027,5.088-4.162,5.054c-3.103-0.031-4.092-2.397-4.111-5.109c-0.057-8.559-0.017-17.12-0.049-25.679
		c-0.005-1.325-0.19-2.649-0.294-3.974c-0.466-0.035-0.933-0.069-1.398-0.104c-0.195,1.429-0.559,2.857-0.561,4.287
		c-0.034,24.901-0.024,49.803-0.024,74.704c0,1.037,0.037,2.077-0.02,3.112c-0.203,3.657-2.511,5.923-5.887,5.823
		c-3.461-0.104-5.41-2.204-5.426-6.206c-0.053-13.23-0.022-26.458-0.024-39.688c-0.001-1.815,0.075-3.637-0.052-5.443
		c-0.051-0.715,0.988-1.858-0.86-2.094C432.075,71.192,431.65,71.276,431.223,71.36"/>
	<path fill="#8F1336" d="M431.587,0.001c5.813,0.086,10.154,4.615,10.06,10.498c-0.092,5.692-4.435,9.929-10.17,9.921
		c-5.863-0.008-10.347-4.455-10.32-10.236C421.183,4.461,425.838-0.084,431.587,0.001"/>
	<path fill="#8F1336" d="M482.303,71.36c0.426-0.084,0.852-0.168,1.277-0.252c1.099,0,0.809,1.379,0.859,2.094
		c0.128,1.807,0.053,3.628,0.053,5.444c0.003,13.229-0.028,26.458,0.024,39.687c0.016,4.002,1.964,6.103,5.425,6.206
		c3.376,0.101,5.685-2.166,5.888-5.824c0.057-1.033,0.019-2.073,0.019-3.11c0.001-24.902-0.009-49.805,0.026-74.705
		c0.002-1.43,0.364-2.858,0.559-4.287c0.467,0.035,0.934,0.07,1.4,0.104c0.102,1.325,0.289,2.649,0.294,3.974
		c0.032,8.559-0.009,17.12,0.049,25.68c0.018,2.712,1.007,5.077,4.111,5.11c3.134,0.032,4.114-2.36,4.162-5.056
		c0.091-5.315,0.095-10.635,0.023-15.951c-0.079-5.955,0.172-11.965-0.549-17.849c-0.826-6.743-5.329-10.166-12.064-10.205
		c-7.004-0.041-14.008-0.02-21.011-0.007c-7.342,0.014-12.32,3.57-12.729,10.796c-0.646,11.375-0.4,22.813-0.099,34.213
		c0.038,1.409,2.727,2.747,4.186,4.118c1.243-1.412,2.667-2.712,3.651-4.286c0.472-0.752,0.123-2.024,0.124-3.062
		c0.004-8.042-0.029-16.083,0.04-24.124c0.011-1.169,0.511-2.334,0.784-3.501c0.423,0.044,0.847,0.088,1.271,0.132
		c0.122,1.453,0.35,2.906,0.351,4.359c0.022,24.901,0.014,49.803,0.02,74.704c0.001,1.296-0.064,2.61,0.126,3.883
		c0.471,3.146,2.435,4.82,5.566,4.863s5.162-1.564,5.704-4.705c0.241-1.393,0.223-2.841,0.225-4.264
		c0.016-13.357,0.004-26.717,0.02-40.076C482.092,74.094,482.228,72.728,482.303,71.36 M482.666,0.001
		c-5.749-0.085-10.403,4.459-10.431,10.183c-0.026,5.781,4.457,10.228,10.32,10.236c5.735,0.008,10.078-4.229,10.17-9.921
		C492.82,4.616,488.479,0.088,482.666,0.001"/>
	<path fill="#8F1336" d="M482.303,71.36c-0.916,0.149-0.211,2.735-0.213,4.103c-0.016,13.359-0.004,26.718-0.02,40.076
		c-0.001,1.423,0.016,2.871-0.225,4.264c-0.542,3.141-2.572,4.748-5.703,4.705c-3.134-0.042-5.097-1.718-5.567-4.863
		c-0.191-1.271-0.126-2.587-0.126-3.883c-0.006-24.9,0.001-49.803-0.02-74.705c-0.002-1.453-0.229-2.904-0.352-4.357
		c-0.423-0.044-0.847-0.088-1.27-0.132c-0.273,1.167-0.773,2.331-0.784,3.501c-0.069,8.04-0.035,16.082-0.039,24.123
		c-0.001,1.036-0.001,1.036-0.124,3.062c-0.112,1.854,0.466,4.286-3.653,4.286c-3.607,0-4.148-2.709-4.185-4.117
		c-0.303-11.401-0.548-22.839,0.097-34.214c0.411-7.226,5.389-10.781,12.73-10.795c7.004-0.014,14.008-0.034,21.011,0.006
		c6.735,0.039,11.239,3.462,12.064,10.206c0.722,5.884,0.471,11.893,0.55,17.848c0.07,5.316,0.066,10.637-0.025,15.952
		c-0.046,2.695-1.027,5.088-4.162,5.054c-3.103-0.031-4.092-2.397-4.111-5.109c-0.057-8.559-0.017-17.12-0.049-25.679
		c-0.005-1.325-0.191-2.649-0.294-3.974c-0.466-0.035-0.933-0.069-1.398-0.104c-0.195,1.429-0.559,2.857-0.561,4.287
		c-0.034,24.901-0.024,49.803-0.024,74.704c0,1.037,0.037,2.077-0.02,3.112c-0.203,3.657-2.511,5.923-5.887,5.823
		c-3.461-0.104-5.41-2.204-5.426-6.206c-0.053-13.23-0.022-26.458-0.024-39.688c-0.001-1.815,0.075-3.637-0.052-5.443
		c-0.051-0.715,0.988-1.858-0.86-2.094C483.154,71.192,482.729,71.276,482.303,71.36"/>
	<path fill="#8F1336" d="M482.666,0.001c5.813,0.086,10.154,4.615,10.06,10.498c-0.092,5.692-4.435,9.929-10.17,9.921
		c-5.863-0.008-10.347-4.455-10.32-10.236C472.263,4.461,476.917-0.084,482.666,0.001"/>
</g>
<g>
	<path fill="#86786F" d="M340.622,22.418c-7.003-0.04-14.007-0.02-21.012-0.006c-7.341,0.014-12.318,3.569-12.73,10.795
		c-0.645,11.375-0.399,22.812-0.097,34.214c0.036,1.408,0.577,4.117,4.185,4.117c4.119,0,3.54-2.432,3.653-4.286
		c0.123-2.025,0.123-2.025,0.124-3.062c0.004-8.041-0.03-16.083,0.039-24.123c0.011-1.17,0.511-2.334,0.783-3.501
		c0.425,0.044,0.849,0.088,1.271,0.132c0.122,1.453,0.35,2.904,0.352,4.357c0.021,24.902,0.015,49.805,0.021,74.705
		c0,1.296-0.065,2.611,0.126,3.883c0.471,3.146,2.434,4.821,5.566,4.863c3.132,0.043,5.162-1.564,5.704-4.705
		c0.24-1.393,0.224-2.841,0.225-4.264c0.016-13.358,0.003-26.717,0.02-40.076c0.002-1.367-0.703-3.953,0.213-4.103
		c0.427-0.084,0.852-0.168,1.277-0.252c1.849,0.235,0.809,1.379,0.86,2.094c0.127,1.807,0.051,3.628,0.052,5.443
		c0.002,13.229-0.028,26.458,0.023,39.688c0.017,4.002,1.966,6.103,5.427,6.206c3.376,0.1,5.684-2.166,5.887-5.823
		c0.057-1.035,0.019-2.075,0.019-3.112c0-24.901-0.009-49.803,0.025-74.704c0.002-1.43,0.365-2.858,0.56-4.287
		c0.269,0.021,0.536,0.04,0.805,0.061V22.766C342.949,22.545,341.823,22.425,340.622,22.418z"/>
	<path fill="#8F1336" d="M353.235,50.472c-0.078-5.955,0.173-11.964-0.549-17.848c-0.679-5.541-3.844-8.836-8.686-9.858v13.906
		c0.198,0.015,0.397,0.029,0.595,0.044c0.104,1.324,0.289,2.648,0.294,3.974c0.032,8.559-0.008,17.119,0.049,25.679
		c0.02,2.712,1.008,5.078,4.111,5.109c3.135,0.034,4.116-2.358,4.162-5.054C353.303,61.109,353.306,55.788,353.235,50.472z"/>
	<path fill="#86786F" d="M329.318,20.421c5.735,0.008,10.078-4.229,10.17-9.921c0.095-5.883-4.246-10.412-10.06-10.498
		c-5.749-0.085-10.403,4.459-10.431,10.183C318.972,15.965,323.455,20.412,329.318,20.421z"/>
</g>
</svg>
