<?xml version="1.0" encoding="utf-8"?>
<!-- Generator: Adobe Illustrator 17.0.0, SVG Export Plug-In . SVG Version: 6.00 Build 0)  -->
<!DOCTYPE svg PUBLIC "-//W3C//DTD SVG 1.1//EN" "http://www.w3.org/Graphics/SVG/1.1/DTD/svg11.dtd">
<svg version="1.1" id="personal-icon" xmlns="http://www.w3.org/2000/svg" xmlns:xlink="http://www.w3.org/1999/xlink" x="0px"
	 y="0px" width="40px" height="26.169px" viewBox="0 0 40 26.169" enable-background="new 0 0 40 26.169" xml:space="preserve">
<g>
	<path fill="#467BBE" d="M20.043,8.097c2.233,0,4.048-1.816,4.048-4.049C24.092,1.816,22.276,0,20.043,0s-4.048,1.816-4.048,4.048
		C15.995,6.281,17.811,8.097,20.043,8.097z M20.043,1.335c1.496,0,2.713,1.218,2.713,2.713c0,1.496-1.218,2.714-2.713,2.714
		c-1.496,0-2.713-1.218-2.713-2.714C17.33,2.553,18.548,1.335,20.043,1.335z"/>
	<path fill="#467BBE" d="M7.355,5.358c-1.832,0-3.323,1.491-3.323,3.323c0,1.831,1.49,3.322,3.323,3.322
		c1.832,0,3.322-1.491,3.322-3.322C10.677,6.849,9.187,5.358,7.355,5.358z M7.355,10.906c-1.228,0-2.227-0.998-2.227-2.225
		c0-1.228,0.999-2.226,2.227-2.226c1.227,0,2.226,0.998,2.226,2.226C9.581,9.908,8.583,10.906,7.355,10.906z"/>
	<path fill="#467BBE" d="M32.717,12.003c1.832,0,3.322-1.491,3.322-3.322c0-1.832-1.49-3.323-3.322-3.323
		c-1.832,0-3.323,1.491-3.323,3.323C29.395,10.512,30.885,12.003,32.717,12.003z M32.717,6.455c1.227,0,2.226,0.998,2.226,2.226
		c0,1.227-0.999,2.225-2.226,2.225c-1.228,0-2.227-0.998-2.227-2.225C30.491,7.453,31.489,6.455,32.717,6.455z"/>
	<path fill="#467BBE" d="M24.092,9.465V8.78h-1.335v0.604H17.33V8.78h-1.335v0.693c-2.185,0.413-3.846,2.331-3.846,4.633v12.063
		h1.096V14.106c0-1.695,1.175-3.111,2.75-3.505v1.148l3.345,3.042l0.071,3.574c-0.389,0.22-0.662,0.62-0.662,1.098
		c0,0.706,0.573,1.279,1.279,1.279s1.279-0.573,1.279-1.279c0-0.433-0.229-0.797-0.559-1.029l-0.073-3.65l3.416-3.03v-1.18
		c1.618,0.363,2.833,1.806,2.833,3.531v12.063h1.096V14.106C28.021,11.775,26.317,9.845,24.092,9.465z M20.007,13.592L17.33,11.16
		v-0.678h5.427v0.673L20.007,13.592z"/>
	<path fill="#467BBE" d="M0,18.05v8.119h1.096V18.05c0-1.999,1.627-3.625,3.626-3.625h5.635v-1.097H4.722
		C2.118,13.328,0,15.447,0,18.05z"/>
	<path fill="#467BBE" d="M35.279,13.328h-5.887v1.097h5.887c1.999,0,3.625,1.626,3.625,3.625v8.119H40V18.05
		C40,15.447,37.882,13.328,35.279,13.328z"/>
	<circle fill="#467BBE" cx="7.336" cy="16.729" r="0.682"/>
	<circle fill="#467BBE" cx="32.717" cy="16.729" r="0.682"/>
</g>
</svg>
