<svg version="1.1" id="phone-icon" xmlns="http://www.w3.org/2000/svg" xmlns:xlink="http://www.w3.org/1999/xlink" x="0px" y="0px"
	 width="42px" height="42px" viewBox="0 0 42 42" enable-background="new 0 0 42 42" xml:space="preserve">
<path fill="#FFFFFF" d="M21,0C9.402,0,0,9.402,0,21s9.402,21,21,21s21-9.402,21-21S32.598,0,21,0z M32.527,28.383
	c-0.505,1.258-2.781,2.407-3.789,2.46c-1.004,0.054-1.034,0.785-6.508-1.613c-5.473-2.396-8.766-8.226-9.026-8.602
	c-0.26-0.374-2.121-3.047-2.021-5.734c0.099-2.69,1.563-3.961,2.084-4.488c0.52-0.527,1.118-0.643,1.484-0.63
	c0.365,0.015,0.727,0.073,1.045,0.084c0.32,0.013,0.781-0.151,1.196,0.959c0.413,1.112,1.406,3.843,1.533,4.121
	s0.206,0.602,0.009,0.959s-0.295,0.583-0.579,0.892c-0.286,0.308-0.602,0.69-0.856,0.927c-0.284,0.262-0.581,0.546-0.282,1.107
	c0.297,0.559,1.327,2.389,2.899,3.899c2.019,1.94,3.759,2.583,4.293,2.878c0.538,0.295,0.858,0.262,1.193-0.092
	c0.331-0.353,1.426-1.546,1.809-2.077c0.385-0.535,0.748-0.43,1.241-0.228c0.493,0.2,3.131,1.624,3.667,1.918
	c0.536,0.293,0.895,0.445,1.024,0.677C33.071,26.03,33.03,27.125,32.527,28.383z"/>
</svg>
