<svg version="1.1" id="service-icon" xmlns="http://www.w3.org/2000/svg" xmlns:xlink="http://www.w3.org/1999/xlink" x="0px" y="0px"
	 width="30px" height="25.81px" viewBox="0 0 30 25.81" enable-background="new 0 0 30 25.81" xml:space="preserve">
<g>
	<g>
		<path fill="#407CCA" d="M9.452,16.191v-2.175c0-0.47,0.384-0.854,0.854-0.854h2.753v-2.753c0-0.47,0.384-0.854,0.854-0.854h2.175
			c0.47,0,0.854,0.384,0.854,0.854v2.753h2.753c0.47,0,0.854,0.384,0.854,0.854v2.175c0,0.47-0.384,0.854-0.854,0.854h-2.753v2.753
			c0,0.47-0.384,0.854-0.854,0.854h-2.175c-0.47,0-0.854-0.384-0.854-0.854v-2.753h-2.753C9.836,17.045,9.452,16.661,9.452,16.191
			L9.452,16.191z"/>
		<path fill="#407CCA" d="M28.412,4.397h-8.43V2.202C19.982,0.988,18.994,0,17.779,0h-5.559c-1.214,0-2.202,0.988-2.202,2.202v2.195
			h-8.43C0.713,4.397,0,5.11,0,5.985v18.237c0,0.876,0.713,1.588,1.588,1.588h26.824c0.876,0,1.588-0.713,1.588-1.588V5.985
			C30,5.11,29.287,4.397,28.412,4.397z M11.265,2.202c0-0.527,0.429-0.956,0.956-0.956h5.559c0.519,0,0.956,0.438,0.956,0.956v2.195
			h-7.471V2.202z M28.754,24.222c0,0.189-0.153,0.342-0.342,0.342H1.588c-0.185,0-0.341-0.156-0.341-0.342V5.985
			c0-0.185,0.156-0.341,0.341-0.341h26.824c0.189,0,0.342,0.153,0.342,0.341V24.222z"/>
	</g>
</g>
</svg>
