<svg version="1.1" id="values-icon" xmlns="http://www.w3.org/2000/svg" xmlns:xlink="http://www.w3.org/1999/xlink" x="0px"
	 y="0px" width="29px" height="32.822px" viewBox="0 0 29 32.822" enable-background="new 0 0 29 32.822" xml:space="preserve">
<g>
	<path fill="#467BBE" d="M14.5,32.822c-3.798,0-7.903-4.352-9.492-6.223C2.515,23.663,0,19.548,0,16.973V2.36
		c0-0.228,0.115-0.44,0.306-0.565C0.419,1.722,3.182,0,13.826,0c10.583,0,14.6,1.67,14.766,1.741C28.839,1.847,29,2.091,29,2.36
		v14.612c0,2.576-2.515,6.69-5.008,9.626C22.403,28.469,18.298,32.822,14.5,32.822z M1.349,2.782v14.191
		c0,1.873,1.971,5.554,4.687,8.753c3.056,3.599,6.22,5.747,8.464,5.747s5.408-2.149,8.464-5.747c2.716-3.199,4.687-6.88,4.687-8.753
		V2.837c-1.242-0.398-5.413-1.488-13.826-1.488C5.579,1.349,2.288,2.393,1.349,2.782z"/>
	<path fill="#467BBE" d="M4.528,25.012l-0.729-1.135c0.167-0.107,16.75-10.88,20.453-22.588l1.286,0.407
		c-1.622,5.127-5.656,10.614-11.991,16.306C8.855,22.216,4.571,24.984,4.528,25.012z"/>
	<path fill="#467BBE" d="M9.183,29.99l-0.778-1.102c0.173-0.122,17.315-12.312,19.26-21.497l1.32,0.279
		C26.931,17.372,9.907,29.48,9.183,29.99z"/>
	<polygon fill="#467BBE" points="7.866,13.147 5.031,10.312 5.984,9.358 7.87,11.244 13.351,5.815 14.3,6.773 	"/>
</g>
</svg>
