<svg version="1.1" id="vision-icon" xmlns="http://www.w3.org/2000/svg" xmlns:xlink="http://www.w3.org/1999/xlink" x="0px"
	 y="0px" width="29px" height="18.092px" viewBox="0 0 29 18.092" enable-background="new 0 0 29 18.092" xml:space="preserve">
<g>
	<path fill="#467BBE" d="M14.5,18.092c-9.447,0-14.145-8.738-14.34-9.11L0,8.677l0.185-0.289C0.405,8.046,5.659,0,14.516,0
		c8.857,0,14.083,8.047,14.301,8.389L29,8.678l-0.159,0.303C28.646,9.354,23.947,18.092,14.5,18.092z M1.381,8.735
		c0.91,1.516,5.351,8.174,13.12,8.174c7.785,0,12.214-6.659,13.12-8.174c-1.011-1.417-5.815-7.553-13.104-7.553
		C7.213,1.182,2.397,7.316,1.381,8.735z"/>
	<path fill="#467BBE" d="M14.827,1.971c-0.607,0-1.193,0.088-1.753,0.239c0.5,0.674,0.799,1.506,0.799,2.41
		c0,2.24-1.816,4.056-4.056,4.056c-0.599,0-1.166-0.133-1.678-0.366C8.133,8.432,8.122,8.553,8.122,8.677
		c0,3.703,3.002,6.706,6.706,6.706s6.706-3.002,6.706-6.706S18.531,1.971,14.827,1.971z"/>
</g>
</svg>
