<svg version="1.1" id="waze-icon" xmlns="http://www.w3.org/2000/svg" xmlns:xlink="http://www.w3.org/1999/xlink" x="0px" y="0px"
	 width="14px" height="14px" viewBox="505 377 14 14" enable-background="new 505 377 14 14" xml:space="preserve">
<g>
	<circle id="XMLID_1_" fill="#407CCA" cx="512" cy="384" r="7"/>
	<g>
		<path fill="none" d="M515.744,381.457c-1.248-1.571-3.58-1.922-5.32-0.792c-0.92,0.596-1.488,1.407-1.558,2.533
			c-0.025,0.399-0.071,0.799-0.146,1.189c-0.081,0.426-0.292,0.775-0.743,0.908c-0.124,0.036-0.256,0.048-0.399,0.073
			c0.311,0.484,1.01,0.986,1.694,1.21c0.029,0.01,0.064,0.011,0.098,0.01c0.206-0.211,0.494-0.343,0.812-0.343
			c0.468,0,0.87,0.284,1.043,0.689c0.441,0.002,0.883,0.006,1.324,0.016c0.027,0,0.052-0.002,0.076-0.003
			c0.17-0.413,0.575-0.704,1.048-0.704c0.295,0,0.564,0.113,0.766,0.297c0.11-0.014,0.21-0.07,0.318-0.14
			c0.057-0.037,0.116-0.073,0.173-0.113C516.619,385.143,516.978,383.011,515.744,381.457z M513.826,382.11
			c0.273,0,0.494,0.221,0.494,0.494s-0.221,0.494-0.494,0.494c-0.273,0-0.494-0.221-0.494-0.494
			C513.332,382.332,513.553,382.11,513.826,382.11z M511.475,382.11c0.273,0,0.494,0.221,0.494,0.494s-0.221,0.494-0.494,0.494
			s-0.494-0.221-0.494-0.494S511.202,382.11,511.475,382.11z M514.44,384.1c-0.181,0.619-0.831,1.112-1.553,1.174
			c-0.081,0.006-0.162,0.01-0.211,0.011c-0.821,0.002-1.518-0.446-1.747-1.105c-0.021-0.059-0.04-0.119-0.046-0.181
			c-0.019-0.152,0.048-0.26,0.197-0.294c0.141-0.032,0.243,0.033,0.299,0.167c0.351,0.858,1.267,1.161,2.063,0.683
			c0.243-0.146,0.424-0.345,0.51-0.623c0.056-0.181,0.187-0.253,0.34-0.202C514.437,383.778,514.493,383.919,514.44,384.1z"/>
		<path fill="#FFFFFF" d="M516.168,381.157c-1.367-1.744-3.921-2.192-5.879-1.02c-1.164,0.696-1.872,1.687-1.947,3.081
			c-0.021,0.373-0.071,0.748-0.148,1.113c-0.078,0.368-0.243,0.48-0.621,0.499c-0.226,0.011-0.4,0.102-0.495,0.31
			c-0.095,0.21-0.046,0.399,0.094,0.576c0.376,0.483,0.842,0.854,1.388,1.126c0.175,0.087,0.354,0.16,0.529,0.24
			c-0.025,0.095-0.04,0.195-0.04,0.299c0,0.273,0.097,0.524,0.257,0.719c0.041,0.052,0.087,0.1,0.138,0.141
			c0.198,0.17,0.456,0.273,0.737,0.273c0.594,0,1.08-0.456,1.129-1.037c0.413,0,0.826,0,1.234,0
			c0.049,0.581,0.535,1.037,1.129,1.037c0.626,0,1.134-0.508,1.134-1.134c0-0.129-0.022-0.251-0.06-0.365
			c0.165-0.1,0.326-0.191,0.478-0.294C517.151,385.418,517.569,382.944,516.168,381.157z M510.199,387.856
			c-0.273,0-0.494-0.221-0.494-0.494s0.221-0.494,0.494-0.494s0.494,0.221,0.494,0.494S510.472,387.856,510.199,387.856z
			 M513.726,387.856c-0.273,0-0.494-0.221-0.494-0.494s0.221-0.494,0.494-0.494s0.494,0.221,0.494,0.494
			S513.999,387.856,513.726,387.856z M514.931,386.29c-0.057,0.038-0.116,0.075-0.173,0.113c-0.11,0.07-0.208,0.127-0.318,0.14
			c-0.202-0.184-0.47-0.297-0.766-0.297c-0.473,0-0.88,0.291-1.048,0.704c-0.024,0.003-0.049,0.005-0.076,0.003
			c-0.442-0.011-0.883-0.014-1.324-0.016c-0.173-0.405-0.575-0.689-1.043-0.689c-0.318,0-0.605,0.132-0.812,0.343
			c-0.035,0.003-0.07,0-0.098-0.01c-0.684-0.224-1.383-0.726-1.694-1.21c0.143-0.025,0.275-0.037,0.399-0.073
			c0.451-0.133,0.662-0.483,0.743-0.908c0.075-0.392,0.122-0.792,0.146-1.189c0.07-1.126,0.64-1.937,1.558-2.533
			c1.741-1.128,4.072-0.778,5.32,0.792C516.978,383.011,516.619,385.143,514.931,386.29z"/>
		<path fill="#FFFFFF" d="M514.291,383.732c-0.154-0.049-0.284,0.022-0.34,0.202c-0.087,0.278-0.267,0.476-0.51,0.623
			c-0.796,0.478-1.712,0.175-2.063-0.683c-0.054-0.133-0.157-0.199-0.299-0.167c-0.151,0.033-0.216,0.141-0.197,0.294
			c0.008,0.062,0.027,0.122,0.046,0.181c0.229,0.657,0.926,1.107,1.747,1.105c0.049-0.003,0.13-0.005,0.211-0.011
			c0.723-0.064,1.372-0.554,1.553-1.174C514.493,383.919,514.437,383.778,514.291,383.732z"/>
		<circle fill="#FFFFFF" cx="511.475" cy="382.604" r="0.494"/>
		<circle fill="#FFFFFF" cx="513.826" cy="382.604" r="0.494"/>
	</g>
</g>
</svg>
